<svg t="1602489691831" class="icon" viewBox="0 0 1024 1024" version="1.1" xmlns="http://www.w3.org/2000/svg" p-id="13917" width="48" height="48"><path d="M457.216 146.432a28.16 28.16 0 0 1 3.584 14.848v149.504c302.08 42.496 476.16 222.72 512 531.456v8.192a51.2 51.2 0 0 1-102.4 6.144v-5.12c-27.136-153.6-159.744-250.368-409.6-284.16v159.232a24.576 24.576 0 0 1-23.552 25.6 22.528 22.528 0 0 1-13.824-4.608l-358.4-282.624a27.648 27.648 0 0 1-5.12-35.84 18.432 18.432 0 0 1 5.12-5.632l358.4-283.136a22.528 22.528 0 0 1 33.792 6.144zM367.104 311.296l-168.96 132.608 168.96 132.608zM460.8 416.256v51.2h11.776a978.432 978.432 0 0 1 252.928 66.048l7.68 3.584-5.632-5.12a529.92 529.92 0 0 0-258.048-114.176z" p-id="13918" fill="#01CBF0"></path></svg>
