<svg xmlns="http://www.w3.org/2000/svg" xmlns:xlink="http://www.w3.org/1999/xlink" viewBox="0 0 270.39 176.62"><defs><style>.cls-1{fill:#1e824a;}.cls-2{fill:none;}.cls-3{opacity:0.2;}.cls-4{fill:#cecece;}.cls-5{opacity:0.8;fill:url(#未命名的渐变_194);}.cls-16,.cls-5,.cls-6,.cls-8,.cls-9{isolation:isolate;}.cls-6,.cls-8,.cls-9{opacity:0.54;}.cls-6{fill:url(#未命名的渐变_25);}.cls-7{fill:#21934f;}.cls-8{fill:url(#未命名的渐变_25-2);}.cls-9{fill:url(#未命名的渐变_25-3);}.cls-10{fill:#31aa62;}.cls-11{fill:#f49a4a;}.cls-12{fill:#db7e2a;}.cls-13{fill:#ffad5c;}.cls-14{fill:#f29938;}.cls-15{fill:#f4b76e;}.cls-16,.cls-30{fill:#f5f6f7;}.cls-16{opacity:0.5;}.cls-17{fill:url(#未命名的渐变_13);}.cls-18{fill:url(#未命名的渐变_13-2);}.cls-19{fill:url(#未命名的渐变_194-2);}.cls-20{clip-path:url(#clip-path);}.cls-21{fill:#507cdc;}.cls-22{clip-path:url(#clip-path-2);}.cls-23{fill:url(#未命名的渐变_13-3);}.cls-24{fill:url(#未命名的渐变_13-4);}.cls-25{fill:url(#未命名的渐变_13-5);}.cls-26{fill:#2c63c6;}.cls-27{clip-path:url(#clip-path-3);}.cls-28{fill:url(#未命名的渐变_13-6);}.cls-29{fill:url(#未命名的渐变_13-7);}.cls-31{fill:url(#未命名的渐变_13-8);}.cls-32{clip-path:url(#clip-path-4);}.cls-33{clip-path:url(#clip-path-5);}.cls-34{clip-path:url(#clip-path-6);}.cls-35{clip-path:url(#clip-path-7);}.cls-36{clip-path:url(#clip-path-8);}</style><linearGradient id="未命名的渐变_194" x1="-3310.22" y1="590.03" x2="-3308.33" y2="590.03" gradientTransform="matrix(44.43, 0, 0, -25.75, 147233.64, 15280.28)" gradientUnits="userSpaceOnUse"><stop offset="0" stop-color="#6e9eff"/><stop offset="1" stop-color="#0f68ea"/></linearGradient><linearGradient id="未命名的渐变_25" x1="-3045.46" y1="579.8" x2="-3045.46" y2="581.46" gradientTransform="matrix(4.71, 0, 0, -15.22, 14533.29, 8989.73)" gradientUnits="userSpaceOnUse"><stop offset="0" stop-color="#21934f" stop-opacity="0"/><stop offset="1" stop-color="#21934f"/></linearGradient><linearGradient id="未命名的渐变_25-2" x1="-3046.42" y1="570.42" x2="-3046.42" y2="572.07" gradientTransform="matrix(4.71, 0, 0, -10.47, 14519.93, 6144.25)" xlink:href="#未命名的渐变_25"/><linearGradient id="未命名的渐变_25-3" x1="-3047.64" y1="554.8" x2="-3047.64" y2="556.45" gradientTransform="matrix(4.71, 0, 0, -6.91, 14525.12, 4012.57)" xlink:href="#未命名的渐变_25"/><linearGradient id="未命名的渐变_13" x1="-3289.23" y1="585.67" x2="-3287.34" y2="585.67" gradientTransform="matrix(25.61, 0, 0, -16.68, 84289.31, 9806.59)" gradientUnits="userSpaceOnUse"><stop offset="0" stop-color="#1e824a"/><stop offset="0.5" stop-color="#2fa462"/><stop offset="1" stop-color="#0fc760"/></linearGradient><linearGradient id="未命名的渐变_13-2" x1="-3285.95" y1="575.56" x2="-3284.06" y2="575.56" gradientTransform="matrix(24.63, 0, 0, -10.34, 81048.83, 6011.1)" xlink:href="#未命名的渐变_13"/><linearGradient id="未命名的渐变_194-2" x1="-3261.76" y1="569.75" x2="-3259.87" y2="569.75" gradientTransform="matrix(17.4, 0, 0, -8.48, 56943.78, 4896.69)" xlink:href="#未命名的渐变_194"/><clipPath id="clip-path"><path class="cls-1" d="M121.2,70.06v-3.4A10.16,10.16,0,0,0,125,74.15v3.4A10.16,10.16,0,0,1,121.2,70.06Z"/></clipPath><clipPath id="clip-path-2"><path class="cls-1" d="M164.63,74.33v-3.4a7.7,7.7,0,0,0,.38,2.38,12,12,0,0,0,5.22,6.16v3.41A12,12,0,0,1,165,76.72,7.76,7.76,0,0,1,164.63,74.33Z"/></clipPath><linearGradient id="未命名的渐变_13-3" x1="-3272.8" y1="571.52" x2="-3270.9" y2="571.52" gradientTransform="matrix(19.45, 0, 0, -9.14, 63714.84, 5299.57)" xlink:href="#未命名的渐变_13"/><linearGradient id="未命名的渐变_13-4" x1="-3136.35" y1="558.21" x2="-3134.46" y2="558.21" gradientTransform="matrix(6.64, 0, 0, -6.32, 20961, 3608.79)" xlink:href="#未命名的渐变_13"/><linearGradient id="未命名的渐变_13-5" x1="-3290.26" y1="584.76" x2="-3288.37" y2="584.76" gradientTransform="matrix(25.61, 0, 0, -16.68, 84259.81, 9823.73)" xlink:href="#未命名的渐变_13"/><clipPath id="clip-path-3"><path class="cls-1" d="M102.77,99.2v3.41a6.74,6.74,0,0,0-4-5.56,2.63,2.63,0,0,1-1.55-2.15V91.49a2.63,2.63,0,0,0,1.54,2.15A6.75,6.75,0,0,1,102.77,99.2Z"/></clipPath><linearGradient id="未命名的渐变_13-6" x1="-3268.3" y1="567.25" x2="-3266.41" y2="567.25" gradientTransform="matrix(18.96, 0, 0, -8.43, 62141.67, 4888.6)" xlink:href="#未命名的渐变_13"/><linearGradient id="未命名的渐变_13-7" x1="-3272.28" y1="569.62" x2="-3270.39" y2="569.62" gradientTransform="matrix(19.38, 0, 0, -9.07, 63494.05, 5276.65)" xlink:href="#未命名的渐变_13"/><linearGradient id="未命名的渐变_13-8" x1="-3016.74" y1="532.78" x2="-3014.85" y2="532.78" gradientTransform="matrix(4.11, 0, 0, -4.19, 12482.65, 2346.1)" xlink:href="#未命名的渐变_13"/><clipPath id="clip-path-4"><path class="cls-2" d="M58.31,68.33V66a7,7,0,0,1,2.53-5.09v2.36A7,7,0,0,0,58.31,68.33Z"/></clipPath><clipPath id="clip-path-5"><path class="cls-2" d="M118.64,54.45V52c0-2.6,1.71-5.18,5.11-7.16a27.88,27.88,0,0,1,21.85-1.4V45.9a27.83,27.83,0,0,0-21.85,1.4C120.35,49.27,118.65,51.86,118.64,54.45Z"/></clipPath><clipPath id="clip-path-6"><path class="cls-2" d="M114,96.56v2.6a7.77,7.77,0,0,0-2.86-5.73v-2.6A7.75,7.75,0,0,1,114,96.56Z"/></clipPath><clipPath id="clip-path-7"><path class="cls-2" d="M121.46,99.52v-2.6a7.54,7.54,0,0,1,2.7-5.47v2.6A7.54,7.54,0,0,0,121.46,99.52Z"/></clipPath><clipPath id="clip-path-8"><path class="cls-1" d="M182.38,75.61V79a1.88,1.88,0,0,0-.09-.57,3,3,0,0,0-1.45-1.58,5.06,5.06,0,0,0-.74-.36,12.68,12.68,0,0,1-1.62-.78,6.62,6.62,0,0,1-3.19-3.5,4.08,4.08,0,0,1-.19-1.25V67.56a4,4,0,0,0,.19,1.25,6.64,6.64,0,0,0,3.19,3.51,12.07,12.07,0,0,0,1.62.78,6.27,6.27,0,0,1,.74.35A3.08,3.08,0,0,1,182.29,75,1.79,1.79,0,0,1,182.38,75.61Z"/></clipPath></defs><title>资源 14</title><g id="图层_2" data-name="图层 2"><g id="图层_1-2" data-name="图层 1"><g id="组_1337" data-name="组 1337" class="cls-3"><path id="路径_1919" data-name="路径 1919" class="cls-4" d="M268.86,93.08a5,5,0,0,0-.73-.36l-57.77-24a7.53,7.53,0,0,0-7.17.8l-7.88,6.91a35.1,35.1,0,0,0-11.65-.63,25.45,25.45,0,0,0-13.9,5.43c-3.27,2.87-4.49,6.35-3.43,9.78a12.29,12.29,0,0,0,5.16,6.33l-7.89,6.92a2.18,2.18,0,0,0-.81,2.32,3.1,3.1,0,0,0,1.43,1.64c.23.13.48.25.73.36l12.67,5.26a8.07,8.07,0,0,0-1,6.81,12.57,12.57,0,0,0,5.88,6.73,22.81,22.81,0,0,0,3,1.5A32.93,32.93,0,0,0,201.48,131a28.42,28.42,0,0,0,10.22-3l11,4.59a8,8,0,0,0,3.86.49,6.06,6.06,0,0,0,3.31-1.29L269.49,97C270.9,95.79,270.59,94.12,268.86,93.08Z"/><path id="路径_1920" data-name="路径 1920" class="cls-4" d="M178.22,132.06l-13.93-8.37a7.77,7.77,0,0,0-7.29,0,19.31,19.31,0,0,1-18.15,0c-5-3-5-7.92-.06-10.94a2.35,2.35,0,0,0,1.34-3,2.32,2.32,0,0,0-1.36-1.35l-12.37-7.43,10.92-6.6a2.35,2.35,0,0,0,0-4.39c-5.2-3.12-5.23-8.21-.06-11.33a20,20,0,0,1,18.81,0,7.77,7.77,0,0,0,7.29,0l14.55-8.8a2.36,2.36,0,0,0,0-4.4L122.39,32.09a7.77,7.77,0,0,0-7.29,0L60,65.42,4.87,98.74a2.35,2.35,0,0,0,0,4.39l55.47,33.32,55.47,33.32a7.72,7.72,0,0,0,7.29,0l55.11-33.32a2.35,2.35,0,0,0,0-4.39Z"/></g><g id="组_1338" data-name="组 1338" class="cls-3"><path id="路径_1921" data-name="路径 1921" class="cls-4" d="M268.86,99a6.18,6.18,0,0,0-.73-.36l-57.77-24a7.53,7.53,0,0,0-7.17.8l-7.88,6.92a35.1,35.1,0,0,0-11.65-.64,25.45,25.45,0,0,0-13.9,5.43c-3.27,2.88-4.49,6.35-3.43,9.79a12.31,12.31,0,0,0,5.16,6.32l-7.89,6.92a2.21,2.21,0,0,0-.81,2.33,3,3,0,0,0,1.43,1.63,5,5,0,0,0,.73.36l12.67,5.26a8.07,8.07,0,0,0-1,6.81,12.53,12.53,0,0,0,5.88,6.73,22.88,22.88,0,0,0,3,1.51,32.93,32.93,0,0,0,15.93,2.06,28.62,28.62,0,0,0,10.22-3l11,4.58a8.07,8.07,0,0,0,3.86.5,6.06,6.06,0,0,0,3.31-1.29L269.49,103C270.9,101.72,270.59,100.05,268.86,99Z"/><path id="路径_1922" data-name="路径 1922" class="cls-4" d="M178.22,138l-13.93-8.36a7.72,7.72,0,0,0-7.29,0,19.37,19.37,0,0,1-18.15,0c-5-3-5-7.92-.06-10.94a2.36,2.36,0,0,0,0-4.4l-12.37-7.42,10.92-6.6a2.36,2.36,0,0,0,1.34-3,2.4,2.4,0,0,0-1.37-1.35c-5.2-3.12-5.23-8.21-.06-11.33a20.07,20.07,0,0,1,18.81,0,7.77,7.77,0,0,0,7.29,0l14.55-8.8a2.35,2.35,0,0,0,1.34-3,2.32,2.32,0,0,0-1.36-1.35L122.39,38a7.77,7.77,0,0,0-7.29,0L60,71.35,4.87,104.67a2.36,2.36,0,0,0-1.34,3,2.4,2.4,0,0,0,1.37,1.35l55.47,33.32,55.47,33.32a7.77,7.77,0,0,0,7.29,0l55.11-33.32a2.36,2.36,0,0,0,0-4.4Z"/></g><path id="路径_1923" data-name="路径 1923" class="cls-5" d="M213.06,106l10.66,4.26L257.9,81.37,208,61.48l-7.63,6.43a7.84,7.84,0,0,1-7.26.77,18.51,18.51,0,0,0-8.63-1.06,13.76,13.76,0,0,0-7.38,2.77,4.57,4.57,0,0,0-1.82,5,6.64,6.64,0,0,0,3.19,3.51,12.07,12.07,0,0,0,1.62.78,6.27,6.27,0,0,1,.74.35,3,3,0,0,1,1.45,1.59,2.09,2.09,0,0,1-.83,2.27l-7.62,6.43,12.29,4.91a5.47,5.47,0,0,1,.73.35,3,3,0,0,1,1.45,1.6,2.08,2.08,0,0,1-.82,2.27,4.39,4.39,0,0,0-1.75,4.81,6.38,6.38,0,0,0,3.06,3.37,13.34,13.34,0,0,0,1.57.76,17.83,17.83,0,0,0,8.31,1,13.35,13.35,0,0,0,7.12-2.67,6.26,6.26,0,0,1,3.34-1.26,8.43,8.43,0,0,1,3.92.48"/><path id="路径_1924" data-name="路径 1924" class="cls-6" d="M182.61,136v.1a.11.11,0,0,0,0,0s0,0,0,0v0l0,0a.08.08,0,0,0,0,0l0,.05,0,0,0,0,0,0,0,0,.05.06,0,0,.06.06,0,0a1.27,1.27,0,0,0,.12.1l0,0,.1.07,0,0,.06,0,.06,0,.07,0,.07,0,.07,0,.07,0,.09,0,.1.05.3.12.08,0,.28.09h0l.32.08.23.05.17,0,.25,0,.18,0h.07l.31,0h.27l.3,0h1.06l.22,0,.19,0,.24,0,.18,0,.28,0,.18,0,.09,0,.27-.07.08,0,.23-.08.12,0,.32-.13c.88-.37,1.31-.88,1.31-1.38l.07,26.87c0,.5-.44,1-1.31,1.38a2.52,2.52,0,0,1-.33.13l-.11,0-.2.07h0l-.08,0-.26.07-.1,0H189l-.11,0-.28.06h-.18l-.24,0H188l-.22,0h-1.07l-.3,0h-.26a3,3,0,0,1-.31,0h-.11l-.14,0-.25,0-.17,0-.23-.05h-.05l-.27-.07,0,0-.28-.09-.08,0a1.88,1.88,0,0,1-.3-.12l-.05,0,0,0-.08,0-.07,0-.08,0-.07,0-.07,0-.06,0-.06-.05h0l0,0-.1-.08,0,0-.12-.1h0l0,0-.06-.06,0,0-.05-.06h0l0,0,0,0,0,0,0-.05,0,0v0l0,0,0,0s0,0,0,0V163a.13.13,0,0,0,0,0s0,0,0,0v-.11L182.62,136S182.61,136,182.61,136Z"/><g id="组_1339" data-name="组 1339"><ellipse id="椭圆_84" data-name="椭圆 84" class="cls-7" cx="187.04" cy="135.95" rx="4.43" ry="1.95" transform="translate(-0.24 0.33) rotate(-0.1)"/></g><path id="路径_1925" data-name="路径 1925" class="cls-8" d="M171.61,150.28v.09a.07.07,0,0,0,0,0s0,0,0,.05l0,.05,0,0a.08.08,0,0,0,0,.05l0,0,0,.05,0,0,0,.05,0,0,0,.06,0,0,.06.06,0,0,.11.1,0,0,.1.07,0,0,.07,0,.06,0,.07,0,.07,0,.07,0,.07,0,.08,0,.1.05.3.12.09,0,.28.09h0l.32.08.22.05.18,0,.24,0,.18,0h.07l.31,0h.27l.3,0h.86l.2,0,.22,0,.19,0,.24,0,.19,0,.27-.05.18,0,.09,0,.27-.07.08,0,.23-.07.12,0,.32-.13c.88-.38,1.31-.88,1.31-1.39l.07,17.9c0,.5-.44,1-1.31,1.39l-.32.13-.12,0-.2.07h0l-.07,0-.27.07-.1,0-.06,0-.11,0-.28,0h-.07l-.11,0-.24,0H177l-.22,0h-1.63a2.91,2.91,0,0,1-.31,0h-.11l-.14,0-.25,0-.17,0-.23,0h-.05l-.27-.07h0l-.28-.09-.08,0-.3-.12-.06,0,0,0-.09,0-.07,0-.07,0-.07,0-.07,0-.06,0-.06,0,0,0h0l-.1-.08,0,0-.12-.11h0l0,0-.06-.07,0,0-.05-.06v0l0,0v-.06l0,0,0-.05,0,0v0l0-.05,0,0s0,0,0-.05v0a.13.13,0,0,0,0-.05s0,0,0,0v-.11l-.07-17.9A.08.08,0,0,0,171.61,150.28Z"/><g id="组_1340" data-name="组 1340"><ellipse id="椭圆_85" data-name="椭圆 85" class="cls-7" cx="176.04" cy="150.2" rx="4.43" ry="1.95" transform="translate(-0.27 0.31) rotate(-0.1)"/></g><path id="路径_1926" data-name="路径 1926" class="cls-9" d="M161.36,163v.19s0,0,0,0l0,0,0,0,0,.05,0,0,0,0,0,0,0,0,0,.06,0,0,.06.06,0,0a1.27,1.27,0,0,0,.12.1l0,0,.1.07.05,0,.06.05.06,0,.07,0,.07,0,.07,0,.07,0,.08,0,.11.05.29.12.09,0,.28.1h0l.32.08.22.05.18,0,.24,0,.18,0h.08l.3,0h1.63l.22,0,.19,0,.24,0,.19,0,.28,0,.17,0,.09,0,.28-.07.07,0,.24-.07.11,0,.33-.13c.87-.38,1.31-.88,1.31-1.39l.07,11.17c0,.5-.44,1-1.31,1.38l-.33.13-.11,0-.2.07h0l-.08,0-.27.07-.09,0-.06,0-.11,0-.28.05h-.07l-.11,0-.24,0h-.2l-.22,0h-1.07l-.3,0h-.27l-.3,0h-.12l-.14,0-.24,0-.18,0-.22-.05h-.05l-.27-.07h0l-.28-.09-.09,0-.29-.12-.06,0,0,0-.08,0-.07,0-.08,0-.06,0-.07,0-.06,0-.07,0h0l0,0L162,175l0,0a1.14,1.14,0,0,1-.11-.11h0l0,0-.06-.06,0,0-.05-.06v0l0,0,0,0,0,0,0-.05v-.05l0,0,0,0s0,0,0,0,0,0,0,0v0a.11.11,0,0,0,0,0s0,0,0,0v-.11l-.07-11.17A.11.11,0,0,0,161.36,163Z"/><g id="组_1341" data-name="组 1341"><ellipse id="椭圆_86" data-name="椭圆 86" class="cls-7" cx="165.79" cy="162.92" rx="4.43" ry="1.95" transform="translate(-0.29 0.3) rotate(-0.1)"/></g><g id="组_1343" data-name="组 1343"><path id="路径_1927" data-name="路径 1927" class="cls-7" d="M55.51,147.69l0,9.72L46.19,163l0-9.72Z"/></g><g id="组_1344" data-name="组 1344"><path id="路径_1928" data-name="路径 1928" class="cls-1" d="M46.21,153.31l0,9.72-9.36-5.62,0-9.72Z"/></g><path id="路径_1929" data-name="路径 1929" class="cls-10" d="M36.85,147.69l9.3-5.62,9.36,5.62-9.3,5.62Z"/><g id="组_1346" data-name="组 1346"><path id="路径_1930" data-name="路径 1930" class="cls-7" d="M54.14,165.08v2.27L52,168.68v-2.27Z"/></g><g id="组_1347" data-name="组 1347"><path id="路径_1931" data-name="路径 1931" class="cls-1" d="M52,166.4v2.27l-2.19-1.32v-2.28Z"/></g><path id="路径_1932" data-name="路径 1932" class="cls-10" d="M49.77,165.08,52,163.76l2.19,1.32L52,166.41Z"/><g id="组_1351" data-name="组 1351"><g id="组_1349" data-name="组 1349"><path id="路径_1933" data-name="路径 1933" class="cls-11" d="M59.71,155.55v4.37l-4.18,2.53v-4.37Z"/></g><g id="组_1350" data-name="组 1350"><path id="路径_1934" data-name="路径 1934" class="cls-12" d="M55.54,158.08v4.37l-4.21-2.53v-4.37Z"/></g><path id="路径_1935" data-name="路径 1935" class="cls-13" d="M51.33,155.55,55.51,153l4.2,2.52-4.17,2.52Z"/></g><g id="组_1354" data-name="组 1354"><g id="组_1352" data-name="组 1352"><path id="路径_1936" data-name="路径 1936" class="cls-11" d="M43.84,159.17v2.45L41.51,163v-2.44Z"/></g><g id="组_1353" data-name="组 1353"><path id="路径_1937" data-name="路径 1937" class="cls-12" d="M41.51,160.59V163l-2.35-1.41v-2.44Z"/></g><path id="路径_1938" data-name="路径 1938" class="cls-13" d="M39.16,159.17l2.33-1.41,2.35,1.41-2.33,1.42Z"/></g><g id="组_1356" data-name="组 1356"><path id="路径_1939" data-name="路径 1939" class="cls-14" d="M59.4,14.16v-.1h0v0h0v0h0v0h0v-.08h0l0,0,0,0,0,0v0h0v0h0v0h.07L83.29,0h.23l2.2,1.28h0a0,0,0,0,0,0,0h-.07l-.06,0L61.85,15l-.13.1h0a.71.71,0,0,0-.1.14h0a.77.77,0,0,0-.07.16h0a.41.41,0,0,0,0,.16l0,14.27a.35.35,0,0,0,0,.13h0a.16.16,0,0,0,.07.07l-2.2-1.28a.1.1,0,0,1-.06,0v0h0v-.06h0v-.06h0l0-14.27Z"/><path id="路径_1940" data-name="路径 1940" class="cls-15" d="M61.93,14.9a.7.7,0,0,0-.32.56l0,14.27c0,.21.15.29.33.19l7.85-4.54,2.52.57a.33.33,0,0,0,.14,0l.08,0,.07,0,.08-.05.08-.07a.58.58,0,0,0,.1-.12l2.55-3.51,10.17-5.86a.74.74,0,0,0,.33-.57l0-14.27a.2.2,0,0,0-.33-.19Z"/><path id="路径_1941" data-name="路径 1941" class="cls-16" d="M66.86,17.1l13.82-8A1.49,1.49,0,0,0,81.38,8h0c0-.38-.31-.51-.7-.29l-13.82,8a1.42,1.42,0,0,0-.7,1.1h0C66.16,17.19,66.48,17.32,66.86,17.1Z"/><path id="路径_1942" data-name="路径 1942" class="cls-16" d="M69.68,18.92l11-6.34a1.51,1.51,0,0,0,.72-1.13h0c0-.4-.33-.54-.72-.31l-11,6.34A1.54,1.54,0,0,0,69,18.62h0C69,19,69.29,19.15,69.68,18.92Z"/><path id="路径_1943" data-name="路径 1943" class="cls-16" d="M70.05,22.13,80.68,16a1.44,1.44,0,0,0,.7-1.11h0c0-.37-.31-.51-.7-.29L70.05,20.74a1.42,1.42,0,0,0-.69,1.1h0C69.36,22.22,69.67,22.36,70.05,22.13Z"/></g><g id="组_1357" data-name="组 1357"><path id="路径_1944" data-name="路径 1944" class="cls-1" d="M165.63,50.51v3.41L116.86,25.76v-3.4Z"/></g><g id="组_1358" data-name="组 1358"><path id="路径_1945" data-name="路径 1945" class="cls-17" d="M116.87,22.36v3.4L68.42,53.92V50.51Z"/></g><g id="组_1359" data-name="组 1359"><path id="路径_1946" data-name="路径 1946" class="cls-1" d="M68.89,59.31v3.4l-7.83-4.52v-3.4Z"/></g><path id="路径_1947" data-name="路径 1947" class="cls-18" d="M178.22,50.68a.86.86,0,0,1,0,.16s0,.09,0,.13a.94.94,0,0,1,0,.16l-.06.13-.07.16-.07.11s-.08.13-.13.19l-.08.11-.22.24-.09.08-.16.13-.15.12-.18.12-.19.13L162,61.21a4.52,4.52,0,0,1-.49.25l-.15.07-.41.15-.15,0-.27.08-.2.06-.29.06-.19,0-.59.08-.19,0-.35,0H158l-.26,0-.24,0-.26,0L157,62l-.28-.05-.22,0-.32-.08-.18,0-.57-.18-.26-.12-.14,0c-.13-.07-.26-.13-.38-.21-.31-.18-.64-.35-1-.51l-.35-.15a6.39,6.39,0,0,0-.6-.26l-.11,0-.24-.08-.82-.28-.28-.09-.19-.06-.82-.21-.18,0-.4-.09-.34-.06c-.24,0-.47-.09-.71-.12l-.29-.05-.32,0-.67-.07L147,59c-.1,0-.2,0-.3,0L146,59l-.34,0h-1.38l-.38,0h-.2l-.93.07-.17,0-.27,0c-.31,0-.62.08-.93.14l-.23,0-.12,0-.43.09-.74.16-.54.14-.69.19-.15,0c-.28.09-.55.18-.81.28l-.11.05c-.3.11-.58.24-.87.38l-.24.11c-.32.16-.62.31-.91.48l-.16.1-.15.09-.25.15-.21.15-.23.16-.2.15-.21.16-.19.16-.19.17-.07.06-.07.07-.31.3-.1.11c-.12.13-.24.27-.35.41h0l-.07.1-.19.26-.09.14-.15.24,0,.07,0,.1c0,.07-.07.13-.1.2l-.08.17c0,.06-.06.14-.09.21a.3.3,0,0,1,0,.08s0,.06,0,.09a1.46,1.46,0,0,0-.07.19c0,.06,0,.11-.05.18s0,.13,0,.18,0,.07,0,.11,0,0,0,.07,0,.14,0,.2a1,1,0,0,1,0,.18c0,.06,0,.14,0,.21v3.64a1.93,1.93,0,0,1,0-.24c0-.08,0-.14,0-.2a.58.58,0,0,0,0-.18,1.42,1.42,0,0,1,0-.2c0-.07,0-.12,0-.18s0-.13,0-.19a1.21,1.21,0,0,0,.05-.18,1.46,1.46,0,0,1,.07-.19l.06-.17c0-.06.06-.14.09-.21l.08-.17a1.86,1.86,0,0,0,.1-.2l.09-.16.15-.24a.71.71,0,0,1,.1-.14l.19-.27.08-.11c.11-.14.22-.27.35-.41l.1-.1q.13-.15.3-.3l.15-.14.19-.17.18-.15.21-.16.21-.16.22-.16L135,65l.24-.15.31-.19c.29-.17.59-.33.91-.48l.24-.12c.28-.13.57-.25.87-.37l.11,0c.31-.12.64-.23,1-.33l.7-.19.53-.14.74-.16.55-.11.23,0,.93-.13.27,0,1.1-.1h.2l.74,0h.74c.21,0,.41,0,.62,0l.68,0,.62.05.68.07.6.09.72.12.73.15.18,0c.34.08.68.18,1,.28l.28.08.82.28.23.09c.25.09.48.2.72.3l.34.15c.34.16.67.33,1,.52l.38.2.13.06.24.1h0l.56.19H156l.13,0,.33.08.08,0,.14,0,.27.05.11,0h.13l.26,0h1.25l.35,0h.19l.59-.08h0l.17,0,.29-.06a1.24,1.24,0,0,0,.2-.06l.27-.07.06,0,.09,0,.42-.16.14-.07a3.33,3.33,0,0,0,.5-.25l14.73-8.56.06,0a1.1,1.1,0,0,1,.14-.09l.19-.13.14-.11.16-.14,0,0,.06-.06.22-.24s0,0,.05,0,0,0,0-.06l.12-.19.05-.07s0,0,0,0l.08-.17,0-.09s0,0,0,0a.94.94,0,0,0,0-.16.62.62,0,0,1,0-.1s0,0,0,0a1,1,0,0,0,0-.17.41.41,0,0,0,0-.1V50.51C178.24,50.58,178.23,50.63,178.22,50.68Z"/><path id="路径_1948" data-name="路径 1948" class="cls-1" d="M81.09,59.09a.39.39,0,0,1,0,.15.88.88,0,0,1,0,.16.89.89,0,0,0,0,.14,1.31,1.31,0,0,1,0,.15.39.39,0,0,1,0,.13s0,.11-.08.16a.35.35,0,0,1-.07.12l-.12.19-.08.1a2.61,2.61,0,0,1-.22.24l-.09.09-.16.13A.83.83,0,0,1,80,61l-.18.13-.19.13-.17.09-.14.1-.25.15-.21.15-.23.16-.2.15-.21.16-.19.15-.19.17-.08.07-.06.07-.31.3-.1.11c-.12.13-.24.26-.35.4v0l-.07.09-.19.27-.09.14-.15.24,0,.07a.93.93,0,0,0,0,.1,1.24,1.24,0,0,0-.1.2.85.85,0,0,0-.08.17L76,65,76,65a.32.32,0,0,1,0,.09l-.06.19a.84.84,0,0,0,0,.17,1.33,1.33,0,0,0,0,.19s0,.07,0,.11,0,0,0,.07l0,.2a1.24,1.24,0,0,0,0,.18c0,.06,0,.14,0,.21v3.64a1,1,0,0,1,0-.24c0-.08,0-.13,0-.2a1.24,1.24,0,0,0,0-.18,1.77,1.77,0,0,1,0-.2c0-.07,0-.12,0-.18s0-.13,0-.19,0-.12,0-.18a1.34,1.34,0,0,1,.07-.18l.06-.18.09-.2a1.38,1.38,0,0,1,.08-.17l.1-.21c0-.06.06-.11.09-.16s.1-.16.15-.24l.09-.14.19-.27a.44.44,0,0,0,.08-.11l.35-.4.11-.11.3-.3.15-.14.18-.16.19-.16.21-.16.2-.15.23-.16L79,65l.25-.15.31-.19.06,0,.14-.09.19-.12a1.74,1.74,0,0,0,.14-.12.91.91,0,0,0,.16-.13l0,0s0,0,.06,0l.22-.24,0-.05s0,0,0-.06l.12-.19,0-.07s0,0,0,0a1.11,1.11,0,0,0,.07-.16l0-.1s0,0,0,0A.94.94,0,0,0,81,63a.62.62,0,0,1,0-.1s0,0,0,0,0-.11,0-.17a.41.41,0,0,0,0-.1v0h0Z"/><path id="路径_1949" data-name="路径 1949" class="cls-19" d="M200.38,64.76c-.1.07-.19.15-.3.22l-.1.07-.19.12c-.16.09-.33.18-.51.26l-.06,0c-.16.07-.33.13-.51.19l-.17,0-.25.08-.22,0-.27.06-.21,0L197,66h-.15l-.38,0h-1l-.25,0-.26,0-.23,0-.27,0-.22,0-.31-.08-.19,0c-.18-.06-.35-.11-.52-.18l-.07,0-.06,0c-.27-.11-.55-.21-.83-.3l-.24-.07-.34-.11-.23-.06-.7-.17-.28-.07-.18,0c-.18,0-.39-.07-.6-.1s-.23,0-.35-.06l-.16,0-.55-.06-.39,0h-.16l-.55,0-.4,0h-1.3c-.29,0-.57,0-.85.06l-.32,0-.13,0c-.43,0-.84.1-1.25.17l-.11,0-.38.08-.58.13-.49.12-.54.16-.15,0-.55.19-.15,0c-.28.1-.55.22-.81.34l-.22.1-.56.29-.24.13-.17.1-.33.21-.22.15c-.22.15-.44.32-.64.48l-.27.24-.1.11-.17.17-.23.25-.15.17-.07.08c-.07.09-.12.17-.19.25l-.05.07-.23.37,0,0,0,.1c-.06.12-.11.23-.16.35a.36.36,0,0,0,0,.09l0,.06c0,.12-.08.24-.11.37s0,.06,0,.1a.84.84,0,0,0-.05.17l0,.2s0,0,0,.08a2.43,2.43,0,0,0,0,.38v3.51a3.59,3.59,0,0,1,0-.47.15.15,0,0,1,0-.09,2.66,2.66,0,0,1,.07-.37.29.29,0,0,1,0-.09c0-.15.09-.29.14-.43l0-.09a3.73,3.73,0,0,1,.16-.35l.05-.1c.08-.14.17-.28.26-.42l.05-.07.25-.33.15-.17.23-.25a1.34,1.34,0,0,1,.17-.17,4.26,4.26,0,0,1,.38-.35c.2-.17.41-.33.64-.49L178,70c.16-.1.32-.21.5-.31l.23-.13c.18-.1.37-.2.57-.29l.21-.1c.26-.12.54-.24.82-.34l.14-.06.7-.23c.18,0,.36-.11.55-.15l.48-.13.58-.13.49-.09c.41-.07.83-.14,1.25-.18.15,0,.3,0,.45,0s.57,0,.85-.06h1.14l.57,0c.19,0,.37,0,.55,0l.55.05.55.06.51.08.6.11.46.1.7.17.57.16.24.08c.3.09.6.2.89.31h0l0,0,.52.17.07,0,.12,0,.32.07.11,0,.1,0,.27.05.15,0h.09l.26,0,.15,0h1.11a2.34,2.34,0,0,0,.38,0H197l.6-.08h.05l.15,0,.27-.06.22-.06.26-.07.08,0,.08,0,.51-.19.07,0a4.82,4.82,0,0,0,.5-.27l.06,0a1.1,1.1,0,0,1,.14-.09l.1-.07a3.15,3.15,0,0,0,.29-.22L208,61.75v-3.4Z"/><g id="组_1362" data-name="组 1362"><path id="路径_1950" data-name="路径 1950" class="cls-1" d="M121.2,70.06v-3.4A10.16,10.16,0,0,0,125,74.15v3.4A10.16,10.16,0,0,1,121.2,70.06Z"/><path class="cls-1" d="M121.2,70.06v-3.4A10.16,10.16,0,0,0,125,74.15v3.4A10.16,10.16,0,0,1,121.2,70.06Z"/><g class="cls-20"><g id="组_1361" data-name="组 1361"><g id="组_1360" data-name="组 1360"><path id="路径_1951" data-name="路径 1951" class="cls-1" d="M125,74.15v3.4a10.17,10.17,0,0,1-3.75-7.49v-3.4A10.17,10.17,0,0,0,125,74.15"/></g></g></g></g><g id="组_1363" data-name="组 1363"><path id="路径_1953" data-name="路径 1953" class="cls-21" d="M257.9,78.21v3.4L208,61.73V58.32Z"/></g><g id="组_1366" data-name="组 1366"><path id="路径_1954" data-name="路径 1954" class="cls-1" d="M164.63,74.33v-3.4a7.7,7.7,0,0,0,.38,2.38,12,12,0,0,0,5.22,6.16v3.41A12,12,0,0,1,165,76.72,7.76,7.76,0,0,1,164.63,74.33Z"/><path class="cls-1" d="M164.63,74.33v-3.4a7.7,7.7,0,0,0,.38,2.38,12,12,0,0,0,5.22,6.16v3.41A12,12,0,0,1,165,76.72,7.76,7.76,0,0,1,164.63,74.33Z"/><g class="cls-22"><g id="组_1365" data-name="组 1365"><g id="组_1364" data-name="组 1364"><path id="路径_1955" data-name="路径 1955" class="cls-1" d="M170.24,79.46v3.41A12,12,0,0,1,165,76.71a7.76,7.76,0,0,1-.38-2.39v-3.4A7.7,7.7,0,0,0,165,73.3a12,12,0,0,0,5.22,6.16"/></g></g></g></g><path id="路径_1957" data-name="路径 1957" class="cls-23" d="M102,78.42l-1.08.38-.34.11-.66.19-.38.11-.69.19-.34.08-1,.23h-.06c-.35.08-.7.15-1.06.21l-.23,0L95,80.16l-.24,0c-.45.07-.89.12-1.34.17l-.34,0-.89.07-.33,0-1.19.06h-.15l-1,0H88l-.71,0-.38,0L86,80.45l-.25,0-1.09-.1-.27,0-.8-.1-.38,0L82.48,80,82.09,80l-.75-.14L81,79.74l-1.14-.25-.21,0-.91-.25-.31-.08-1.29-.4-.13,0c-.4-.14-.79-.28-1.17-.43l-.26-.1-.5-.21-.36-.15-.52-.24-.33-.15-.55-.28L73.06,77c-.27-.14-.54-.28-.8-.43-4.71-2.72-7.06-6.3-7.05-9.87v3.41c0,3.57,2.34,7.14,7,9.86l.8.44.27.14c.19.09.36.19.55.27l.33.16.52.23.36.16.51.21.1,0,.15,0c.38.15.78.3,1.17.43l.14,0,1.28.4.15,0,.16,0,.91.24.22,0c.38.1.75.18,1.13.26l.09,0,.24,0,.76.14.38.07.74.12.25,0,.13,0,.8.1.27,0,1.09.11H86l.84.06.38,0,.71,0h1.55l1,0h.15c.4,0,.8,0,1.19-.06l.34,0,.89-.07.21,0h.12l1.35-.16.24,0,1.2-.19.16,0,.08,0c.35-.06.71-.13,1.06-.21h0l1-.23.33-.08.7-.19.38-.11.65-.19.22-.07.13,0c.36-.12.72-.24,1.07-.38Z"/><path id="路径_1958" data-name="路径 1958" class="cls-24" d="M137.15,74.55a.44.44,0,0,1,0,.16.7.7,0,0,0,0,.14s0,.1,0,.15a1.12,1.12,0,0,0-.05.13l-.08.16-.07.12a1.86,1.86,0,0,0-.12.18l-.09.11-.22.24-.09.08-.16.13-.14.12-.19.12-.19.13L124.6,82.94v3.41l11-6.42.06,0,.14-.09.19-.13.14-.11.16-.13,0,0,0-.06a1.7,1.7,0,0,0,.22-.24.12.12,0,0,0,.05,0l0,0,.12-.19a.35.35,0,0,0,.05-.08s0,0,0,0l.08-.16c0-.06,0-.06,0-.1s0,0,0,0,0-.1.05-.15,0-.07,0-.11,0,0,0,0,0-.11,0-.16,0-.07,0-.11V74.39C137.16,74.45,137.15,74.5,137.15,74.55Z"/><g id="组_1367" data-name="组 1367"><path id="路径_1959" data-name="路径 1959" class="cls-1" d="M109.83,82.94v3.41L102,81.83V78.42Z"/></g><g id="组_1368" data-name="组 1368"><path id="路径_1960" data-name="路径 1960" class="cls-25" d="M61.06,54.79v3.4L12.61,86.35V82.94Z"/></g><path id="路径_1961" data-name="路径 1961" class="cls-26" d="M182.36,79.1a1.49,1.49,0,0,1,0,.21.24.24,0,0,1,0,.08.83.83,0,0,1-.06.21.14.14,0,0,1,0,.06,1.23,1.23,0,0,1-.12.26l0,.06a1.88,1.88,0,0,1-.16.23l-.05.06a2.7,2.7,0,0,1-.28.31,1,1,0,0,1-.15.13l-7.62,6.44v3.4l7.63-6.43.12-.11,0,0a1.58,1.58,0,0,0,.28-.3l0,0,0,0a2,2,0,0,0,.16-.24l0,0v0c0-.09.09-.18.12-.27h0a.11.11,0,0,1,0,0,.66.66,0,0,0,.06-.2.09.09,0,0,1,0,0s0,0,0,0a1.38,1.38,0,0,0,0-.2V79S182.36,79.07,182.36,79.1Z"/><g id="组_1369" data-name="组 1369"><path id="路径_1962" data-name="路径 1962" class="cls-7" d="M117.23,87.22v3.4l-7.77,4.52v-3.4Z"/></g><g id="组_1370" data-name="组 1370"><path id="路径_1963" data-name="路径 1963" class="cls-1" d="M126.46,92.55V96l-9.23-5.33v-3.4Z"/></g><path id="路径_1964" data-name="路径 1964" class="cls-1" d="M163.62,90.41a6.13,6.13,0,0,1-.73-.35,3,3,0,0,1-1.45-1.59,1.84,1.84,0,0,1-.09-.57v3.41a1.77,1.77,0,0,0,.09.56,3,3,0,0,0,1.45,1.59,5,5,0,0,0,.73.36l12.83,5.11V95.52Z"/><g id="组_1373" data-name="组 1373"><path id="路径_1965" data-name="路径 1965" class="cls-1" d="M102.77,99.2v3.41a6.74,6.74,0,0,0-4-5.56,2.63,2.63,0,0,1-1.55-2.15V91.49a2.63,2.63,0,0,0,1.54,2.15A6.75,6.75,0,0,1,102.77,99.2Z"/><path class="cls-1" d="M102.77,99.2v3.41a6.74,6.74,0,0,0-4-5.56,2.63,2.63,0,0,1-1.55-2.15V91.49a2.63,2.63,0,0,0,1.54,2.15A6.75,6.75,0,0,1,102.77,99.2Z"/><g class="cls-27"><g id="组_1372" data-name="组 1372"><g id="组_1371" data-name="组 1371"><path id="路径_1966" data-name="路径 1966" class="cls-1" d="M102.77,99.2v3.41a6.74,6.74,0,0,0-4-5.56,2.63,2.63,0,0,1-1.55-2.15V91.49a2.63,2.63,0,0,0,1.54,2.15,6.75,6.75,0,0,1,4,5.56"/></g></g></g></g><path id="路径_1968" data-name="路径 1968" class="cls-26" d="M188.41,94.56v.1a1.2,1.2,0,0,1,0,.2s0,.06,0,.09l-.06.2s0,0,0,.06-.08.18-.13.27l0,0a2,2,0,0,1-.16.24l0,.06a2.68,2.68,0,0,1-.28.3l-.15.14-.26.23-.1.1-.17.16c-.05.06-.15.16-.22.25a1.58,1.58,0,0,0-.14.16l-.07.08-.17.24-.05.07a2.56,2.56,0,0,0-.22.35l0,0,0,.09c-.05.11-.11.23-.15.34l0,.09,0,0c-.05.12-.08.24-.12.36a.29.29,0,0,1,0,.09,1.23,1.23,0,0,0,0,.16l0,.19a.19.19,0,0,1,0,.08,2.19,2.19,0,0,0,0,.36v3.5a3.4,3.4,0,0,1,0-.45.22.22,0,0,1,0-.08c0-.12,0-.24.07-.36s0-.06,0-.09.09-.27.14-.41a.36.36,0,0,1,0-.09c0-.11.1-.22.15-.34l.05-.09c.08-.13.16-.27.25-.4l.05-.07a3.33,3.33,0,0,1,.24-.32l.14-.16.22-.25.17-.16.36-.33.12-.11,0,0a2.81,2.81,0,0,0,.29-.31l0,0,0,0a1.88,1.88,0,0,0,.16-.23s0,0,0,0v0a2.06,2.06,0,0,0,.12-.26v0a.11.11,0,0,1,0,0,.66.66,0,0,0,.06-.2.06.06,0,0,1,0,0s0,0,0,0a1.52,1.52,0,0,0,0-.21V98h0Z"/><path id="路径_1969" data-name="路径 1969" class="cls-1" d="M138.64,92.48a.44.44,0,0,1,0,.16,1.11,1.11,0,0,0,0,.13s0,.11-.05.16a1.12,1.12,0,0,0,0,.13l-.08.16-.07.12-.12.18-.09.11-.22.24a.6.6,0,0,1-.08.08l-.16.13-.15.12-.19.13-.2.13-.16.09-.14.09-.23.15-.21.14-.22.15-.19.15-.2.15-.19.15-.19.17-.08.06-.06.07-.3.29-.09.1-.34.39v0l-.07.09c-.06.08-.12.17-.19.25l-.09.14-.14.23,0,.07-.05.09c0,.07-.07.13-.1.19a1.22,1.22,0,0,0-.07.17s-.06.13-.09.19l0,.08s0,.06,0,.08a.82.82,0,0,0-.06.19c0,.07,0,.12-.05.17a1.33,1.33,0,0,0,0,.19s0,.07,0,.11,0,0,0,.07l0,.19c0,.05,0,.11,0,.17s0,.13,0,.18a.47.47,0,0,0,0,.12v3.52a1.69,1.69,0,0,1,0-.23c0-.08,0-.13,0-.19s0-.11,0-.17l0-.19c0-.06,0-.11,0-.17a1.33,1.33,0,0,1,0-.19,1.09,1.09,0,0,1,.05-.17.7.7,0,0,1,.06-.19l.06-.17a1.42,1.42,0,0,1,.08-.18l.08-.17.1-.19.09-.16.14-.23.09-.13a2.48,2.48,0,0,1,.19-.26l.08-.11.34-.39.09-.1.3-.29.14-.13.19-.17.19-.15.2-.15.19-.15.22-.15.2-.14.24-.15.3-.19.06,0,.14-.09.19-.12.14-.12.16-.13,0,0,0-.06a1.7,1.7,0,0,0,.22-.24.12.12,0,0,0,.05,0s0,0,0,0l.12-.19,0-.07s0,0,0,0l.08-.17,0-.09s0,0,0,0a.94.94,0,0,0,0-.16.26.26,0,0,0,0-.11s0,0,0,0a.78.78,0,0,0,0-.16.52.52,0,0,0,0-.11V92.32C138.65,92.37,138.64,92.43,138.64,92.48Z"/><path id="路径_1970" data-name="路径 1970" class="cls-28" d="M208.44,113.78l.39-.15.75-.31.34-.15c.34-.15.69-.32,1-.49v-3.4l-1,.49-.34.14-.75.31-.39.15-.77.28-.38.13-1.14.35-.09,0-1.1.29-.37.08-.91.19-.36.07-.92.16L202,112l-1.37.17-.57,0-.71.06-.46,0-.69,0-.48,0h-2.16l-.53,0-.52,0-.52,0-.52,0-.52-.06-.51,0-.52-.07-.5-.07-.56-.09-.48-.08-.56-.1-.45-.09-.73-.17-.34-.08c-.35-.08-.7-.18-1.05-.28h0c-.4-.11-.79-.23-1.18-.36l-.32-.11c-.33-.11-.66-.23-1-.36l-.26-.1a23.06,23.06,0,0,1-3.05-1.46,12.38,12.38,0,0,1-5.95-6.55,7.49,7.49,0,0,1-.38-2.34v3.41a7.39,7.39,0,0,0,.38,2.33,12.4,12.4,0,0,0,6,6.56,23.06,23.06,0,0,0,3,1.46l.11,0,.15.06c.32.13.65.24,1,.36l.32.1c.38.13.78.26,1.18.37h0l1,.28.34.08.73.16.14,0,.32.06.56.11.47.08.57.09.2,0,.3,0,.51.07.52,0,.52.05.21,0,.31,0,.52,0,.52,0,.52,0h2.41l.24,0,.69,0,.46,0,.71-.06.31,0,.26,0c.46,0,.91-.11,1.37-.18l.44-.07.73-.11.18,0,.36-.07.92-.19.37-.08c.38-.09.74-.19,1.1-.29l.09,0,1-.3.16,0,.38-.13Z"/><path id="路径_1971" data-name="路径 1971" class="cls-29" d="M113.21,99.23c0,.14,0,.29,0,.43s0,.24,0,.35a3.31,3.31,0,0,1,0,.33c0,.11,0,.24-.05.36s0,.22-.07.33l-.09.34-.09.33-.12.34-.12.32c0,.11-.1.24-.15.36s-.1.21-.15.31a3,3,0,0,1-.19.35l-.21.38-.11.18-.38.58c-.13.19-.27.36-.41.53l-.11.14-.4.46-.06.07c-.16.18-.33.34-.5.51l-.13.13c-.12.11-.23.22-.36.32l-.34.31-.32.26-.38.29-.34.26-.4.28-.38.25c-.14.08-.29.19-.43.28l-.57.35c-.36.21-.73.4-1.11.6l-.31.15-1,.46-.2.09c-.4.18-.8.34-1.2.49l-.31.11c-.33.13-.67.25-1,.35l-.33.11-.73.22-.35.11-1.11.29-1.23.27-.38.07-.79.15-.84.13-.62.09-.87.1-.62.07-.6.05-.78.06-.61,0-.79,0H88.62c-.3,0-.6,0-.89,0l-.43,0c-.42,0-.83,0-1.24-.08H86c-.44,0-.87-.08-1.31-.13l-.4,0c-.3,0-.59-.07-.89-.12l-.5-.08-.8-.14-.5-.09-.76-.16-.58-.13-.73-.19-.56-.15-.82-.24-.4-.12-1.19-.41v3.4c.39.15.79.28,1.19.41l.4.12c.21.07.43.14.64.19l.18,0,.57.15.72.19.58.13.46.1.29.06.51.09.8.14.5.08.26,0,.63.08.4,0c.43,0,.86.1,1.3.13H86c.41,0,.83.06,1.24.08l.43,0,.61,0h2.45c.17,0,.33,0,.49,0s.41,0,.61,0,.52,0,.78-.06l.6,0,.19,0,.43,0,.88-.11.62-.09.84-.13.29,0,.5-.1.38-.07q.62-.12,1.23-.27l1.1-.29.36-.11.73-.22.13,0,.2-.06,1-.35.31-.12q.61-.23,1.2-.48l.21-.1c.33-.14.66-.3,1-.45l.3-.16c.38-.19.76-.39,1.12-.6l.34-.2.23-.15c.14-.09.28-.19.42-.27s.25-.17.38-.25.27-.19.4-.28l.35-.26.38-.29.32-.27.34-.3.17-.15c.06,0,.12-.12.19-.17l.13-.13.5-.51.06-.08.4-.45.11-.14.09-.11c.11-.14.22-.28.32-.43a6.27,6.27,0,0,0,.38-.57l.11-.18a2.55,2.55,0,0,0,.14-.24.61.61,0,0,0,.07-.14l.19-.35a1.82,1.82,0,0,0,.15-.32,2.83,2.83,0,0,0,.15-.35c0-.07.06-.13.08-.19s0-.09,0-.13.07-.22.11-.34.07-.22.1-.33,0-.23.08-.34a1.6,1.6,0,0,0,0-.21.5.5,0,0,1,0-.12l.06-.35c0-.12,0-.22,0-.33s0-.23,0-.35,0-.15,0-.22v-.22h0Z"/><g id="组_1374" data-name="组 1374"><path id="路径_1972" data-name="路径 1972" class="cls-30" d="M229.38,113a6.26,6.26,0,0,1-3.35,1.26,8.54,8.54,0,0,1-3.91-.48l-11.18-4.46a29.64,29.64,0,0,1-10.34,2.9,34.49,34.49,0,0,1-16.13-2,22.94,22.94,0,0,1-3-1.46,12.38,12.38,0,0,1-6-6.56,7.58,7.58,0,0,1,1-6.63l-12.83-5.11a6.13,6.13,0,0,1-.73-.35,3,3,0,0,1-1.45-1.59,2.07,2.07,0,0,1,.82-2.27l8-6.74A12,12,0,0,1,165,73.31c-1.08-3.34.16-6.72,3.47-9.52a26.39,26.39,0,0,1,14.08-5.29,36.77,36.77,0,0,1,11.79.62l8-6.74a7.87,7.87,0,0,1,7.26-.77l58.5,23.33a5,5,0,0,1,.74.35c1.75,1,2.07,2.63.62,3.85Zm-16.32-10.17L223.72,107,257.9,78.21,208,58.31l-7.63,6.44a7.87,7.87,0,0,1-7.26.77,18.39,18.39,0,0,0-8.63-1.07,13.84,13.84,0,0,0-7.38,2.77,4.59,4.59,0,0,0-1.82,5,6.58,6.58,0,0,0,3.19,3.5,12.19,12.19,0,0,0,1.63.78,7,7,0,0,1,.73.35,3.08,3.08,0,0,1,1.45,1.59,2.08,2.08,0,0,1-.83,2.27l-7.62,6.44,12.3,4.9a7,7,0,0,1,.73.35,3.11,3.11,0,0,1,1.45,1.6,2.1,2.1,0,0,1-.83,2.27,4.4,4.4,0,0,0-1.75,4.81,6.36,6.36,0,0,0,3.07,3.37,12.62,12.62,0,0,0,1.57.76,17.77,17.77,0,0,0,8.3,1,13.32,13.32,0,0,0,7.12-2.67,6.26,6.26,0,0,1,3.35-1.26,8.54,8.54,0,0,1,3.91.48"/></g><path id="路径_1973" data-name="路径 1973" class="cls-7" d="M270.37,77.54a1.49,1.49,0,0,1,0,.21.24.24,0,0,1,0,.08.9.9,0,0,1-.06.22.17.17,0,0,1,0,0,1.51,1.51,0,0,1-.12.26l0,.06a1.82,1.82,0,0,1-.15.23l-.05.06a2.7,2.7,0,0,1-.28.31c-.05,0-.09.09-.15.13h0L229.38,113l-.28.22-.1.07-.19.12a4.09,4.09,0,0,1-.51.26l-.1,0a4.29,4.29,0,0,1-.5.19l-.14,0-.26.07-.21.06-.27.06-.22,0-.56.08a.62.62,0,0,0-.19,0l-.38,0h-1l-.24,0-.26,0-.23,0-.28-.05-.2,0-.33-.08-.18,0c-.18-.06-.35-.11-.52-.18l-.06,0L211,109.27v3.41l11.18,4.46h.06c.17.07.35.12.52.18l.08,0,.1,0,.33.08.12,0h.08l.28,0a.76.76,0,0,1,.16,0h.07l.26,0,.18,0h1.11l.37,0h.2a4.54,4.54,0,0,0,.55-.08h.05l.17,0,.27-.06.22-.06.25-.07.07,0s.05,0,.08,0l.5-.19.1,0,.51-.26,0,0,.15-.09.1-.07.29-.22,40.08-33.81h0l.12-.11,0,0a4.12,4.12,0,0,0,.28-.31l0,0s0,0,0,0a1.88,1.88,0,0,0,.16-.23s0,0,0,0v0l.12-.27h0a0,0,0,0,1,0,0,1.8,1.8,0,0,0,.06-.22.08.08,0,0,1,0,0s0,0,0,0l0-.21v-3.5A.29.29,0,0,0,270.37,77.54Z"/><path id="路径_1974" data-name="路径 1974" class="cls-7" d="M158.89,111.27c-.33.11-.65.23-1,.33l-.33.1-.66.21-.37.1-.66.18-.36.09-.77.17-.25.06-1,.2-.16,0-1.22.19-.26,0-1.32.16-.31,0-.88.08-.34,0-1.12.06h-.05l-1.11,0H145.2l-.7,0-.39,0-.77,0-.3,0-1.06-.1-.19,0-.86-.11-.35,0-.74-.12-.38-.06-.73-.14-.33-.07-1.11-.25-.18,0-.92-.25-.3-.08-1.26-.4-.11,0c-.4-.14-.79-.28-1.17-.43l-.25-.1-.49-.2-.36-.16-.5-.22-.33-.16c-.19-.08-.36-.17-.54-.26l-.27-.14-.78-.43c-4.61-2.67-6.91-6.17-6.9-9.67v3.41c0,3.5,2.29,7,6.9,9.67l.78.43.27.13c.18.09.36.19.54.27l.33.16.5.22.36.16.49.2.11.05.14,0c.38.15.77.29,1.17.43l.11,0,1.26.4.14,0,.16,0,.93.25.17,0,1.11.25.09,0,.24,0,.73.14.38.06.74.12.24,0h.11l.86.11.19,0,1.06.11h.3l.77.06h.39c.23,0,.46,0,.7,0h1.51l1.11,0h.05c.38,0,.75,0,1.12-.06l.34,0,.88-.08h.31l1.32-.16.27,0,1.22-.19h.15l1-.21.25-.06.77-.17.35-.09.67-.18.36-.1.67-.2.23-.07.09,0,1-.34Z"/><g id="组_1375" data-name="组 1375"><path id="路径_1975" data-name="路径 1975" class="cls-1" d="M166,115.37v3.41l-7.11-4.11v-3.4Z"/></g><g id="组_1376" data-name="组 1376"><path id="路径_1976" data-name="路径 1976" class="cls-31" d="M76.56,110.85v3.41l-7.77,4.52v-3.41Z"/></g><g id="组_1377" data-name="组 1377"><path id="路径_1977" data-name="路径 1977" class="cls-30" d="M177.06,113.23a2.26,2.26,0,0,1,0,4.28l-55.8,32.43a8.14,8.14,0,0,1-7.38,0L57.73,117.51,1.55,85.08A2.27,2.27,0,0,1,.16,82.19,2.25,2.25,0,0,1,1.53,80.8L57.34,48.37l55.8-32.43a8.14,8.14,0,0,1,7.38,0l56.17,32.43a2.26,2.26,0,0,1,0,4.28L162,61.21a8.14,8.14,0,0,1-7.38,0,21,21,0,0,0-19,0c-5.23,3-5.21,8,.06,11a2.26,2.26,0,0,1,0,4.28l-11.06,6.42,12.52,7.23a2.26,2.26,0,0,1,0,4.27c-5,2.94-5,7.71.05,10.65a20.32,20.32,0,0,0,18.38,0,8.14,8.14,0,0,1,7.38,0ZM116.87,22.36,68.43,50.51l11.12,6.42a2.26,2.26,0,0,1,0,4.28c-5.24,3-5.21,8,.06,11a21,21,0,0,0,19,0,8.14,8.14,0,0,1,7.38,0l11.12,6.42L125,74.15c-5.89-5.36-4.84-12.55,3.19-17.22s20.44-5.3,29.71-1.9l7.77-4.52L116.87,22.35M79.82,104.66a21.24,21.24,0,0,0,18,.54q.54-.26,1-.54a9.09,9.09,0,0,0,.92-.59c4.3-3.06,4-7.59-1-10.44a2.26,2.26,0,0,1,0-4.28l11-6.42L102,78.41c-9.22,3.41-21.64,2.77-29.72-1.9s-9.22-11.86-3.39-17.22l-7.82-4.52L12.63,82.93l48.76,28.15,11-6.42a8.14,8.14,0,0,1,7.38,0m37.74,38.86L166,115.36l-7.11-4.1c-9,3.29-21.16,2.65-29-1.9s-9-11.57-3.37-16.82l-9.23-5.32-7.78,4.51c4.24,3.85,4.88,8.65,1.93,12.78a16.31,16.31,0,0,1-5.12,4.44,29.09,29.09,0,0,1-7.65,3,39.7,39.7,0,0,1-22.05-1.08l-7.78,4.52,48.76,28.15"/></g><path id="路径_1978" data-name="路径 1978" class="cls-1" d="M178.59,115.54a.44.44,0,0,1,0,.16.89.89,0,0,0,0,.14s0,.1,0,.15,0,.09-.05.13l-.08.16a1.27,1.27,0,0,1-.07.12l-.12.19-.09.1a2.4,2.4,0,0,1-.22.24l-.08.08-.16.14-.15.11-.19.13-.19.13L121.28,150l-.49.25-.16.05-.41.16-.15.05-.27.08-.21.05-.28.06-.19,0c-.19,0-.4.06-.6.09h-.19l-.35,0h-1l-.24,0-.26,0-.23,0-.28,0-.22,0-.32-.08-.18,0-.57-.19-.26-.11-.14-.06c-.13-.06-.25-.13-.37-.2L57.72,117.52,1.55,85.09A2.64,2.64,0,0,1,0,82.93v3.41a2.61,2.61,0,0,0,1.54,2.15l56.17,32.43,56.18,32.43.37.21.14.05.24.11h0c.19.06.37.13.57.18l0,0,.13,0,.32.08.09,0,.13,0,.28,0,.11,0,.12,0,.26,0,.12,0H118l.35,0h.18l.6-.08h0l.17,0,.28-.06.21-.06.27-.08h.05l.1,0c.14,0,.27-.1.41-.15l.15-.07a3.23,3.23,0,0,0,.49-.25l55.81-32.43.06,0,.13-.09.19-.13.15-.12.16-.13,0,0,.06-.06.22-.24a.12.12,0,0,1,0,0l0-.06a1.27,1.27,0,0,0,.13-.19l.05-.07s0,0,0,0l.07-.16a.88.88,0,0,0,0-.1s0,0,0,0,0-.11,0-.16a.62.62,0,0,1,0-.1s0,0,0,0,0-.11,0-.16,0-.08,0-.11v-3.45S178.59,115.49,178.59,115.54Z"/><g id="组_1383" data-name="组 1383"><g id="组_1380" data-name="组 1380"><path id="路径_1979" data-name="路径 1979" class="cls-12" d="M58.31,68.33V66a7,7,0,0,1,2.53-5.09v2.36A7,7,0,0,0,58.31,68.33Z"/><g class="cls-32"><g id="组_1379" data-name="组 1379"><g id="组_1378" data-name="组 1378"><path id="路径_1980" data-name="路径 1980" class="cls-12" d="M60.85,60.88v2.35l0,0V60.91l0,0"/><path id="路径_1981" data-name="路径 1981" class="cls-12" d="M60.82,60.91v2.36a8.86,8.86,0,0,0-1,1.1V62a8.86,8.86,0,0,1,1-1.1"/><path id="路径_1982" data-name="路径 1982" class="cls-12" d="M59.79,62v2.36a9.33,9.33,0,0,0-.66,1V63a9.33,9.33,0,0,1,.66-1"/><path id="路径_1983" data-name="路径 1983" class="cls-12" d="M59.13,63v2.36a6.69,6.69,0,0,0-.44.94V63.94a6.31,6.31,0,0,1,.44-.95"/><path id="路径_1984" data-name="路径 1984" class="cls-12" d="M58.69,63.93v2.36a6.24,6.24,0,0,0-.26.94V64.87a6.24,6.24,0,0,1,.26-.94"/><path id="路径_1985" data-name="路径 1985" class="cls-12" d="M58.43,64.87v2.36a6,6,0,0,0-.11.94V65.82a6,6,0,0,1,.11-.95"/><path id="路径_1986" data-name="路径 1986" class="cls-12" d="M58.32,65.82v0"/></g></g></g></g><path id="路径_1988" data-name="路径 1988" class="cls-11" d="M81.56,81.69l0,0-.09.06-.13.09-.1.08-.11.09,0,0,0,0-.16.16s0,0,0,0l0,0-.09.13,0,.05v0a1.17,1.17,0,0,1,0,.11l0,.07v0l0,.11a.41.41,0,0,0,0,.07s0,0,0,0a.5.5,0,0,1,0,.12v.1h0v2.26a.25.25,0,0,1,0-.12s0-.06,0-.09l0-.11a.36.36,0,0,1,0-.09l.05-.11,0-.08.09-.13.05-.07.16-.17.06,0a.52.52,0,0,1,.11-.1l.1-.08.13-.08.14-.09,7.65-4.45V77.24Z"/><g id="组_1381" data-name="组 1381"><path id="路径_1989" data-name="路径 1989" class="cls-12" d="M55.65,96.74V99.1L21.87,79.6V77.24Z"/></g><path id="路径_1990" data-name="路径 1990" class="cls-11" d="M84.28,88.92a.22.22,0,0,1,0,.08c0,.13,0,.26-.08.4v0c0,.13-.09.25-.14.38l0,.07c-.06.13-.12.25-.19.38l-.06.08a3.39,3.39,0,0,1-.23.34l0,0a3.59,3.59,0,0,1-.32.38l-.09.09c-.09.09-.19.19-.3.28l-.1.09-.43.34-.45.29-.19.12-.7.38-.68.29-.24.08-.47.17c-.24.08-.49.14-.74.21l-.08,0-.85.19-.71.11-.19,0-.61.06H76.2q-.35,0-.69,0H74.6c-.3,0-.59,0-.88,0l-.23,0-.64-.07-.3,0L72,93.6l-.65-.14-.09,0-.58-.17-.21-.06L69.85,93l-.08,0-.46-.2-.24-.1-.65-.35-.27-.14-.09,0-.17-.07h0l-.39-.13h0l-.09,0-.22-.06h-.06l-.09,0-.19,0-.08,0h-.08l-.19,0H65.19l-.41.06h0l-.12,0-.2.05-.14,0-.19,0h0L64,92l-.29.11-.1.05a2.16,2.16,0,0,0-.34.17l-7.65,4.45v2.35l7.65-4.44a3.65,3.65,0,0,1,.34-.18l.1,0,.29-.11.1,0,.19-.06.14,0,.2,0,.14,0,.41-.05.13,0h1.11l.19,0,.17,0,.18,0,.15,0,.23.06.12,0,.39.13.19.08.09,0,.27.14a6.82,6.82,0,0,0,.66.34,1.73,1.73,0,0,0,.24.1,3.43,3.43,0,0,0,.44.19h0l.07,0a6.08,6.08,0,0,0,.6.21l.21.06.22.08.35.09.09,0,.54.13H72l.58.11.24,0h0l.66.07.19,0h0c.29,0,.58,0,.88,0h1l.62,0h.14l.27,0,.34,0,.19,0,.67-.1h0l.85-.19.08,0c.25-.06.5-.13.74-.21h0l.42-.15.24-.09L80.9,95a7,7,0,0,0,.7-.38l.14-.08.06,0c.15-.1.3-.19.44-.3s.3-.22.43-.33l.11-.1.11-.09.18-.18.1-.1c.1-.11.21-.23.3-.35l0,0,0,0a2.54,2.54,0,0,0,.23-.34l.06-.08,0-.06c.06-.11.1-.21.15-.32l0-.07.06-.14a2.23,2.23,0,0,0,.08-.24v0c0-.09,0-.19.07-.27a.69.69,0,0,1,0-.13.13.13,0,0,1,0-.07l0-.34V88.5A3,3,0,0,1,84.28,88.92Z"/><g id="组_1382" data-name="组 1382"><path id="路径_1991" data-name="路径 1991" class="cls-13" d="M89.21,77.24l-7.66,4.45a1.57,1.57,0,0,0-1,2,1.59,1.59,0,0,0,1,1c3.42,2,3.65,5.11.68,7.23-.2.14-.41.28-.64.41s-.46.25-.7.38a14.75,14.75,0,0,1-12.49-.38,5.61,5.61,0,0,0-5.11,0l-7.65,4.45L21.88,77.25l33.56-19.5,5.42,3.13c-4,3.7-3.26,8.69,2.34,11.92a26.25,26.25,0,0,0,20.59,1.32Z"/></g></g><g id="组_1390" data-name="组 1390"><g id="组_1384" data-name="组 1384"><path id="路径_1992" data-name="路径 1992" class="cls-11" d="M151.32,40.07v2.51L145.6,45.9V43.39Z"/></g><path id="路径_1993" data-name="路径 1993" class="cls-12" d="M88,44.79l-8.18-4.73v2.51L88,47.3a1.93,1.93,0,0,1,1.14,1.58v-2.5A2,2,0,0,0,88,44.79Z"/><g id="组_1387" data-name="组 1387"><path id="路径_1994" data-name="路径 1994" class="cls-12" d="M118.64,54.45V52c0-2.6,1.71-5.18,5.11-7.16a27.88,27.88,0,0,1,21.85-1.4V45.9a27.83,27.83,0,0,0-21.85,1.4C120.35,49.27,118.65,51.86,118.64,54.45Z"/><g class="cls-33"><g id="组_1386" data-name="组 1386"><g id="组_1385" data-name="组 1385"><path id="路径_1995" data-name="路径 1995" class="cls-12" d="M145.6,43.39V45.9c-.53-.2-1.07-.37-1.63-.53V42.86c.56.16,1.1.34,1.63.53"/><path id="路径_1996" data-name="路径 1996" class="cls-12" d="M144,42.86v2.51c-.6-.17-1.22-.33-1.85-.46v-2.5c.64.12,1.25.28,1.85.45"/><path id="路径_1997" data-name="路径 1997" class="cls-12" d="M142.12,42.41v2.51c-.56-.12-1.15-.22-1.74-.31v-2.5c.59.08,1.17.19,1.74.3"/><path id="路径_1998" data-name="路径 1998" class="cls-12" d="M140.38,42.11v2.5c-.56-.08-1.13-.14-1.71-.19v-2.5c.58,0,1.15.11,1.71.19"/><path id="路径_1999" data-name="路径 1999" class="cls-12" d="M138.67,41.92v2.5c-.58,0-1.16-.08-1.74-.09V41.82c.58,0,1.16,0,1.74.1"/><path id="路径_2000" data-name="路径 2000" class="cls-12" d="M136.94,41.83v2.5h-1.81v-2.5c.6,0,1.2,0,1.81,0"/><path id="路径_2001" data-name="路径 2001" class="cls-12" d="M135.14,41.83v2.51c-.66,0-1.3.06-1.95.13V42c.65-.06,1.29-.11,1.95-.13"/><path id="路径_2002" data-name="路径 2002" class="cls-12" d="M133.18,42v2.51c-.75.07-1.51.19-2.25.31v-2.5c.74-.14,1.49-.24,2.25-.32"/><path id="路径_2003" data-name="路径 2003" class="cls-12" d="M130.93,42.27v2.51a26,26,0,0,0-3.27.81V43.08a26,26,0,0,1,3.27-.81"/><path id="路径_2004" data-name="路径 2004" class="cls-12" d="M127.66,43.08v2.51a19.37,19.37,0,0,0-3.91,1.7l-.22.13v-2.5l.22-.13a20,20,0,0,1,3.91-1.71"/><path id="路径_2005" data-name="路径 2005" class="cls-12" d="M123.53,44.92v2.51a14.14,14.14,0,0,0-2.22,1.64v-2.5a14.2,14.2,0,0,1,2.22-1.65"/><path id="路径_2006" data-name="路径 2006" class="cls-12" d="M121.31,46.57v2.5a11.12,11.12,0,0,0-1.09,1.18V47.74a11,11,0,0,1,1.09-1.17"/><path id="路径_2007" data-name="路径 2007" class="cls-12" d="M120.22,47.74v2.51a9,9,0,0,0-.7,1v-2.5a8.33,8.33,0,0,1,.7-1"/><path id="路径_2008" data-name="路径 2008" class="cls-12" d="M119.52,48.79v2.5a7.58,7.58,0,0,0-.47,1v-2.5a7,7,0,0,1,.47-1"/><path id="路径_2009" data-name="路径 2009" class="cls-12" d="M119.05,49.79v2.5a6,6,0,0,0-.28,1V50.78a5.6,5.6,0,0,1,.28-1"/><path id="路径_2010" data-name="路径 2010" class="cls-12" d="M118.77,50.78v2.5a5.91,5.91,0,0,0-.12,1V51.79a5.69,5.69,0,0,1,.12-1"/><path id="路径_2011" data-name="路径 2011" class="cls-12" d="M118.65,51.79v0"/></g></g></g></g><path id="路径_2013" data-name="路径 2013" class="cls-12" d="M107.5,56.05l-.28-.14-.1,0-.17-.07h0l-.41-.14h0l-.09,0-.24,0-.07,0-.09,0-.21,0-.08,0h-.09l-.19,0h-.91l-.26,0h-.14l-.44.06h0l-.12,0-.22,0-.15,0-.19.06h0l-.07,0-.3.11-.11,0c-.12.06-.25.12-.36.19s-.44.24-.67.35l-.19.08c-.2.1-.42.19-.64.28l-.08,0a7.39,7.39,0,0,1-.71.24l-.5.15-.39.1-.55.12-.4.08-.17,0-.69.09-.2,0c-.27,0-.53,0-.8.06H96l-.55,0h-1c-.15,0-.33,0-.5,0l-.46,0-.5,0-.44-.07a4.71,4.71,0,0,1-.52-.09l-.54-.1-.14,0-.74-.2L90.35,57l-.6-.2-.18-.07-.52-.22-.26-.11c-.25-.12-.49-.25-.72-.38A5,5,0,0,1,85.15,52v2.51a5,5,0,0,0,2.92,4.08c.23.14.47.26.72.38l.26.11a4.17,4.17,0,0,0,.44.19l.08,0,.18.07.6.2.21.07.13,0,.61.16.14,0,.29.06.25,0,.52.09.21,0,.24,0,.49,0a1.6,1.6,0,0,1,.23,0h.23l.5,0h1.69l.68-.05.13,0,.2,0,.68-.1L98,60H98l.32-.07c.18,0,.36-.07.54-.12l.39-.1.51-.15.11,0a5.29,5.29,0,0,0,.6-.21l.08,0,.64-.27.19-.09c.23-.11.45-.23.67-.35a3,3,0,0,1,.36-.19l.11,0a2.65,2.65,0,0,1,.3-.11l.11,0,.19-.05.15,0,.21,0,.14,0c.15,0,.29,0,.44-.06h.14l.26,0h.74l.18,0,.19,0,.17,0,.2,0,.16,0,.24.06.13,0,.42.13.19.09.1,0a1.91,1.91,0,0,1,.28.15l8.18,4.73V60.78Z"/><g id="组_1388" data-name="组 1388"><path id="路径_2014" data-name="路径 2014" class="cls-11" d="M121.4,57.45V60l-5.72,3.32v-2.5Z"/></g><g id="组_1389" data-name="组 1389"><path id="路径_2015" data-name="路径 2015" class="cls-13" d="M151.32,40.07l-5.72,3.32a27.88,27.88,0,0,0-21.85,1.4c-5.9,3.44-6.68,8.73-2.35,12.67l-5.71,3.32-8.19-4.73a6,6,0,0,0-5.43,0,15.48,15.48,0,0,1-14,0c-3.88-2.24-3.89-5.88,0-8.12a1.66,1.66,0,0,0,0-3.14l-8.18-4.73,35.63-20.71Z"/></g></g><g id="组_1400" data-name="组 1400"><g id="组_1393" data-name="组 1393"><path id="路径_2016" data-name="路径 2016" class="cls-12" d="M114,96.56v2.6a7.77,7.77,0,0,0-2.86-5.73v-2.6A7.75,7.75,0,0,1,114,96.56Z"/><g class="cls-34"><g id="组_1392" data-name="组 1392"><g id="组_1391" data-name="组 1391"><path id="路径_2017" data-name="路径 2017" class="cls-12" d="M114,96.56v2.6a7.77,7.77,0,0,0-2.86-5.73v-2.6A7.75,7.75,0,0,1,114,96.56"/></g></g></g></g><g id="组_1396" data-name="组 1396"><path id="路径_2019" data-name="路径 2019" class="cls-12" d="M121.46,99.52v-2.6a7.54,7.54,0,0,1,2.7-5.47v2.6A7.54,7.54,0,0,0,121.46,99.52Z"/><g class="cls-35"><g id="组_1395" data-name="组 1395"><g id="组_1394" data-name="组 1394"><path id="路径_2020" data-name="路径 2020" class="cls-12" d="M124.16,91.45v2.6a10.34,10.34,0,0,0-1.1,1.19V92.63a10.25,10.25,0,0,1,1.1-1.18"/><path id="路径_2021" data-name="路径 2021" class="cls-12" d="M123.06,92.63v2.61a8.52,8.52,0,0,0-.71,1.06V93.7a8.63,8.63,0,0,1,.71-1.07"/><path id="路径_2022" data-name="路径 2022" class="cls-12" d="M122.35,93.7v2.6a6.76,6.76,0,0,0-.48,1v-2.6a6.76,6.76,0,0,1,.48-1"/><path id="路径_2023" data-name="路径 2023" class="cls-12" d="M121.87,94.72v2.6a6.1,6.1,0,0,0-.29,1v-2.6a6.1,6.1,0,0,1,.29-1"/><path id="路径_2024" data-name="路径 2024" class="cls-12" d="M121.58,95.73v2.6a6,6,0,0,0-.12,1v-2.6a5.91,5.91,0,0,1,.12-1"/><path id="路径_2025" data-name="路径 2025" class="cls-12" d="M121.46,96.76v0"/></g></g></g></g><g id="组_1397" data-name="组 1397"><path id="路径_2027" data-name="路径 2027" class="cls-12" d="M117.35,130.43V133l-37.3-21.53V108.9Z"/></g><g id="组_1398" data-name="组 1398"><path id="路径_2028" data-name="路径 2028" class="cls-11" d="M154.4,108.9v2.61L117.35,133v-2.61Z"/></g><g id="组_1399" data-name="组 1399"><path id="路径_2029" data-name="路径 2029" class="cls-13" d="M154.4,108.9l-37.06,21.53L80.06,108.9l6-3.45a30.28,30.28,0,0,0,16.87.82,21.93,21.93,0,0,0,5.85-2.27,12.37,12.37,0,0,0,3.91-3.39c2.26-3.16,1.77-6.83-1.47-9.77l5.94-3.46,7.06,4.07c-4.32,4-3.46,9.38,2.58,12.87A28.42,28.42,0,0,0,149,105.77Z"/></g></g><g id="组_1403" data-name="组 1403"><path id="路径_2030" data-name="路径 2030" class="cls-1" d="M182.38,75.61V79a1.88,1.88,0,0,0-.09-.57,3,3,0,0,0-1.45-1.58,5.06,5.06,0,0,0-.74-.36,12.68,12.68,0,0,1-1.62-.78,6.62,6.62,0,0,1-3.19-3.5,4.08,4.08,0,0,1-.19-1.25V67.56a4,4,0,0,0,.19,1.25,6.64,6.64,0,0,0,3.19,3.51,12.07,12.07,0,0,0,1.62.78,6.27,6.27,0,0,1,.74.35A3.08,3.08,0,0,1,182.29,75,1.79,1.79,0,0,1,182.38,75.61Z"/><path class="cls-1" d="M182.38,75.61V79a1.88,1.88,0,0,0-.09-.57,3,3,0,0,0-1.45-1.58,5.06,5.06,0,0,0-.74-.36,12.68,12.68,0,0,1-1.62-.78,6.62,6.62,0,0,1-3.19-3.5,4.08,4.08,0,0,1-.19-1.25V67.56a4,4,0,0,0,.19,1.25,6.64,6.64,0,0,0,3.19,3.51,12.07,12.07,0,0,0,1.62.78,6.27,6.27,0,0,1,.74.35A3.08,3.08,0,0,1,182.29,75,1.79,1.79,0,0,1,182.38,75.61Z"/><g class="cls-36"><g id="组_1402" data-name="组 1402"><g id="组_1401" data-name="组 1401"><path id="路径_2031" data-name="路径 2031" class="cls-1" d="M182.38,75.61V79a1.88,1.88,0,0,0-.09-.57,3,3,0,0,0-1.45-1.58,5.06,5.06,0,0,0-.74-.36,12.68,12.68,0,0,1-1.62-.78,6.62,6.62,0,0,1-3.19-3.5,4.08,4.08,0,0,1-.19-1.25V67.56a4,4,0,0,0,.19,1.25,6.64,6.64,0,0,0,3.19,3.51,12.07,12.07,0,0,0,1.62.78,6.27,6.27,0,0,1,.74.35A3.08,3.08,0,0,1,182.29,75a2.24,2.24,0,0,1,.08.57"/></g></g></g></g><path id="路径_2033" data-name="路径 2033" class="cls-1" d="M188.33,90.6A3,3,0,0,0,186.87,89a4.89,4.89,0,0,0-.73-.35l-12.31-4.91v3.41l12.31,4.9a6.13,6.13,0,0,1,.73.35,3,3,0,0,1,1.46,1.6,1.52,1.52,0,0,1,.08.56v-3.4A2.18,2.18,0,0,0,188.33,90.6Z"/><path id="路径_2034" data-name="路径 2034" class="cls-1" d="M213.06,99.38H213l-.52-.18-.07,0-.11,0-.32-.08-.12,0h-.09l-.28,0-.15,0h-.07l-.26,0-.18,0h-1.11l-.38,0h-.21a5.58,5.58,0,0,0-.57.08h-.05l-.17,0-.27.06-.22.06-.25.07-.06,0-.08,0c-.18.06-.35.12-.51.19l-.09,0a3.06,3.06,0,0,0-.51.26l0,0-.14.09-.1.06-.29.22c-.19.16-.4.32-.61.47l-.22.14-.48.3-.22.12-.54.28-.21.1c-.25.12-.52.23-.79.33l-.13,0-.68.23-.53.15-.47.12-.56.12-.47.09c-.39.07-.79.13-1.2.17l-.45,0-.8,0h-1.1l-.54,0-.54,0-.53-.05-.53-.06-.49-.07-.57-.1-.44-.1-.67-.16-.56-.16-.22-.07a8.82,8.82,0,0,1-.86-.31,9.89,9.89,0,0,1-1.57-.76,6.29,6.29,0,0,1-3.07-3.37,3.83,3.83,0,0,1-.19-1.21v3.41a3.83,3.83,0,0,0,.19,1.21,6.36,6.36,0,0,0,3.07,3.37,12.62,12.62,0,0,0,1.57.76l.06,0,.8.28.22.07.34.11.22,0,.68.17.26.06.17,0,.57.1.34.06.15,0,.53.06.38,0h.16l.54,0,.37,0h1.26q.4,0,.81-.06a1.67,1.67,0,0,0,.31,0h.13c.41,0,.81-.1,1.2-.17h.1l.37-.08.57-.12.46-.12.53-.16.14,0c.19,0,.36-.12.54-.18l.13,0a8.14,8.14,0,0,0,.79-.33l.21-.1.54-.28.23-.12.16-.1.32-.2.21-.14c.21-.15.42-.31.61-.47a3.15,3.15,0,0,1,.29-.22l.1-.06a2,2,0,0,1,.19-.12,4.11,4.11,0,0,1,.51-.27l.09,0c.16-.07.33-.13.51-.19l.14,0,.26-.08.21-.05.27-.06.22,0,.57-.08.21,0,.38,0h1l.24,0,.26,0,.23,0,.28,0,.2,0,.33.08.19,0a5.34,5.34,0,0,1,.52.18l.06,0L223.71,107v-3.41Z"/><g id="组_1404" data-name="组 1404"><path id="路径_2035" data-name="路径 2035" class="cls-7" d="M257.9,74.8v3.41L223.71,107v-3.4Z"/></g><g id="组_1405" data-name="组 1405"><path id="路径_2036" data-name="路径 2036" class="cls-10" d="M257.9,74.8l-34.17,28.84-10.67-4.26a8.51,8.51,0,0,0-3.91-.48,6.32,6.32,0,0,0-3.35,1.26,13.31,13.31,0,0,1-7.11,2.67,17.83,17.83,0,0,1-8.31-1,13.34,13.34,0,0,1-1.57-.76,6.38,6.38,0,0,1-3.06-3.37,4.39,4.39,0,0,1,1.75-4.81,2.1,2.1,0,0,0,.83-2.27,3,3,0,0,0-1.46-1.6,6.13,6.13,0,0,0-.73-.35l-12.3-4.9,7.63-6.44a2.07,2.07,0,0,0,.82-2.27,3,3,0,0,0-1.45-1.59,6.13,6.13,0,0,0-.73-.35,12.8,12.8,0,0,1-1.63-.78,6.62,6.62,0,0,1-3.18-3.51,4.56,4.56,0,0,1,1.82-5A13.84,13.84,0,0,1,184.5,61a18.35,18.35,0,0,1,8.62,1.07,7.87,7.87,0,0,0,7.26-.77L208,54.9Z"/></g></g></g></svg>
