<?xml version="1.0" encoding="utf-8"?>
<!-- Generator: Adobe Illustrator 22.1.0, SVG Export Plug-In . SVG Version: 6.00 Build 0)  -->
<svg version="1.1" id="图层_1" xmlns="http://www.w3.org/2000/svg" xmlns:xlink="http://www.w3.org/1999/xlink" x="0px" y="0px"
     viewBox="0 0 200 200" style="enable-background:new 0 0 200 200;" xml:space="preserve">
<style type="text/css">
	.st0{fill:url(#SVGID_1_);}
	.st1{enable-background:new    ;}
	.st2{fill:#75EF00;}
	.st3{fill:#62BF00;}
	.st4{fill:#BCFF76;}
	.st5{fill:#001216;}
	.st6{fill:#EAEAEA;}
	.st7{fill:#FFFFFF;}
	.st8{fill:#9B9895;}
	.st9{fill:#FFEA6C;}
	.st10{fill:#141C00;}
	.st11{fill:#FFCE00;}
	.st12{fill:#B59200;}
	.st13{fill:#D3AA00;}
	.st14{fill:#027899;}
	.st15{clip-path:url(#SVGID_3_);}
	.st16{fill:none;stroke:#FFEA6C;stroke-miterlimit:10;}
	.st17{clip-path:url(#SVGID_5_);}
	.st18{clip-path:url(#SVGID_7_);}
	.st19{fill:#85AA2D;}
	.st20{fill:#D4FF80;}
	.st21{fill:#4F9900;}
	.st22{clip-path:url(#SVGID_9_);}
	.st23{fill:none;stroke:#D5FF83;stroke-miterlimit:10;}
	.st24{fill:#C3F900;}
	.st25{fill:#E5FF78;}
	.st26{fill:#004859;}
	.st27{fill:#809E00;}
	.st28{fill:#9CC100;}
	.st29{clip-path:url(#SVGID_11_);}
	.st30{fill:none;stroke:#FFFFFF;stroke-miterlimit:10;}
	.st31{clip-path:url(#SVGID_13_);}
	.st32{fill:#027899;stroke:#FFFFFF;stroke-width:0.33;stroke-miterlimit:10;}
	.st33{clip-path:url(#SVGID_15_);}
	.st34{fill:#AED800;}
	.st35{fill:#C5C5C5;}
	.st36{fill:#D5FF83;}
	.st37{clip-path:url(#SVGID_17_);}
	.st38{clip-path:url(#SVGID_19_);}
	.st39{clip-path:url(#SVGID_21_);}
	.st40{clip-path:url(#SVGID_23_);}
	.st41{fill:#684A33;}
	.st42{fill:#00B77A;}
</style>
  <g>
	<path d="M199.6,0.8V199H1.4V0.8H199.6 M200.6-0.2H0.4V200h200.2V-0.2L200.6-0.2z"/>
</g>
  <linearGradient id="SVGID_1_" gradientUnits="userSpaceOnUse" x1="100.5006" y1="198.8699" x2="100.5006" y2="0.7272">
	<stop  offset="0" style="stop-color:#C0FF55"/>
    <stop  offset="1" style="stop-color:#2AFFCC"/>
</linearGradient>
  <rect x="1.4" y="0.7" class="st0" width="198.1" height="198.1"/>
  <g>
	<g class="st1">
		<g>
			<polygon class="st2" points="182.5,134.7 182.5,144.9 104.5,190.2 104.5,180 			"/>
		</g>
    <g>
			<polygon class="st3" points="104.5,180 104.5,190.2 18.8,140.7 18.8,130.5 			"/>
		</g>
    <g>
			<polygon class="st4" points="182.5,134.7 104.5,180 18.8,130.5 96.8,85.2 			"/>
		</g>
	</g>
</g>
  <g>
	<g>
		<path class="st5" d="M114.6,125l0,7.2l-4.1-2.8l0-6.8c0-1,1-1.7,1.7-1.2l0.9,0.6C114,122.6,114.6,123.7,114.6,125z"/>
	</g>
</g>
  <g>
	<g>
		<g>
			<g class="st1">
				<g>
					<polygon class="st6" points="136,92.8 135.9,126.2 120.9,136.3 121,102.9 					"/>
				</g>
        <g>
					<g>
						<polygon class="st7" points="121,102.9 120.9,136.3 105.8,126.2 105.9,92.8 						"/>
					</g>
				</g>
        <g>
					<polygon class="st8" points="136,92.8 121,102.9 105.9,92.8 120.9,82.7 					"/>
				</g>
			</g>
		</g>
    <g>
			<g class="st1">
				<g>
					<polygon class="st9" points="113.3,87.9 126.7,78.9 135.9,92.8 121,102.9 					"/>
				</g>
        <g>
					<polygon class="st10" points="105.9,92.8 120.9,82.7 126.7,78.9 113.3,87.9 					"/>
				</g>
        <g>
					<g>
						<polygon class="st11" points="113.3,87.9 121,102.9 105.9,92.8 						"/>
					</g>
				</g>
			</g>
		</g>
	</g>
    <g>
		<polygon class="st11" points="136,111.1 136,112.1 121,122.2 121,121.2 		"/>
	</g>
    <g>
		<polygon class="st11" points="121,121.2 121,122.2 105.8,112.1 105.8,111.1 		"/>
	</g>
    <g>
		<polygon class="st9" points="136,111.1 121,121.2 105.8,111.1 105.8,110.7 121,120.7 136,110.7 		"/>
	</g>
    <g>
		<g>
			<polygon class="st12" points="118.8,108.6 118.8,113.6 115.6,111.5 115.7,106.5 			"/>
		</g>
      <g>
			<g class="st1">
				<g>
					<polygon class="st11" points="118.9,108.4 118.9,113.7 118.7,113.9 118.7,108.5 					"/>
				</g>
        <g>
					<polygon class="st9" points="118.7,108.5 118.7,113.9 118.5,113.8 118.5,108.4 					"/>
				</g>
        <g>
					<polygon class="st8" points="118.9,108.4 118.7,108.5 118.5,108.4 118.7,108.2 					"/>
				</g>
			</g>
		</g>
      <g>
			<g class="st1">
				<g>
					<polygon class="st13" points="115.7,106.2 115.7,111.6 115.5,111.8 115.5,106.4 					"/>
				</g>
        <g>
					<polygon class="st9" points="115.5,106.4 115.5,111.8 115.4,111.6 115.4,106.3 					"/>
				</g>
        <g>
					<polygon class="st8" points="115.7,106.2 115.5,106.4 115.4,106.3 115.6,106.1 					"/>
				</g>
			</g>
		</g>
      <g>
			<g>
				<polygon class="st11" points="119.7,107.2 119.7,108.3 117.5,109.6 117.5,109.5 				"/>
			</g>
        <g>
				<polygon class="st11" points="117.5,109.5 117.5,109.6 113.9,107.2 113.9,107 				"/>
			</g>
        <g>
				<polygon class="st14" points="119.7,107.2 117.5,109.5 113.9,107 116.1,104.8 				"/>
			</g>
        <g>
				<defs>
					<polygon id="SVGID_2_" points="119.7,107.2 117.5,109.5 113.9,107 116.1,104.8 					"/>
				</defs>
          <clipPath id="SVGID_3_">
					<use xlink:href="#SVGID_2_"  style="overflow:visible;"/>
				</clipPath>
          <g class="st15">
					<g>
						<line class="st16" x1="113.5" y1="107" x2="116" y2="104.5"/>
            <polyline class="st16" points="116.6,104.9 116.4,105.1 114.1,107.4 						"/>
            <polyline class="st16" points="117.2,105.3 117,105.4 114.7,107.8 						"/>
            <polyline class="st16" points="117.8,105.6 117.6,105.8 115.3,108.2 						"/>
            <polyline class="st16" points="118.4,106 118.2,106.2 115.9,108.6 						"/>
            <polyline class="st16" points="118.9,106.4 118.7,106.6 116.5,109 						"/>
            <polyline class="st16" points="119.5,106.8 119.3,107 117,109.4 						"/>
            <polyline class="st16" points="120.1,107.2 119.9,107.4 117.6,109.8 						"/>
					</g>
				</g>
			</g>
		</g>
	</g>
    <g>
		<g>
			<polygon class="st12" points="119.2,125.2 119.2,130.2 116,128.1 116,123.1 			"/>
		</g>
      <g>
			<g class="st1">
				<g>
					<polygon class="st11" points="119.3,125 119.3,130.3 119.1,130.5 119.1,125.1 					"/>
				</g>
        <g>
					<polygon class="st9" points="119.1,125.1 119.1,130.5 118.9,130.4 118.9,125 					"/>
				</g>
        <g>
					<polygon class="st8" points="119.3,125 119.1,125.1 118.9,125 119.1,124.8 					"/>
				</g>
			</g>
		</g>
      <g>
			<g class="st1">
				<g>
					<polygon class="st13" points="116.1,122.8 116.1,128.2 115.9,128.4 115.9,123 					"/>
				</g>
        <g>
					<polygon class="st9" points="115.9,123 115.9,128.4 115.8,128.2 115.8,122.9 					"/>
				</g>
        <g>
					<polygon class="st8" points="116.1,122.8 115.9,123 115.8,122.9 116,122.7 					"/>
				</g>
			</g>
		</g>
      <g>
			<g>
				<polygon class="st11" points="120.1,123.8 120.1,124.9 117.9,126.2 117.9,126.1 				"/>
			</g>
        <g>
				<polygon class="st11" points="117.9,126.1 117.9,126.2 114.3,123.8 114.3,123.6 				"/>
			</g>
        <g>
				<polygon class="st14" points="120.1,123.8 117.9,126.1 114.3,123.6 116.5,121.4 				"/>
			</g>
        <g>
				<defs>
					<polygon id="SVGID_4_" points="120.1,123.8 117.9,126.1 114.3,123.6 116.5,121.4 					"/>
				</defs>
          <clipPath id="SVGID_5_">
					<use xlink:href="#SVGID_4_"  style="overflow:visible;"/>
				</clipPath>
          <g class="st17">
					<g>
						<line class="st16" x1="113.9" y1="123.6" x2="116.4" y2="121.1"/>
            <polyline class="st16" points="117,121.5 116.8,121.7 114.5,124 						"/>
            <polyline class="st16" points="117.6,121.9 117.4,122 115.1,124.4 						"/>
            <polyline class="st16" points="118.2,122.2 118,122.4 115.7,124.8 						"/>
            <polyline class="st16" points="118.8,122.6 118.6,122.8 116.3,125.2 						"/>
            <polyline class="st16" points="119.3,123 119.1,123.2 116.8,125.6 						"/>
            <polyline class="st16" points="119.9,123.4 119.7,123.6 117.4,126 						"/>
            <polyline class="st16" points="120.5,123.8 120.3,124 118,126.4 						"/>
					</g>
				</g>
			</g>
		</g>
	</g>
    <g>
		<g>
			<polygon class="st12" points="110.9,104.3 110.9,109.3 107.8,107.2 107.8,102.2 			"/>
		</g>
      <g>
			<g class="st1">
				<g>
					<polygon class="st11" points="111,104.1 111,109.4 110.8,109.6 110.8,104.2 					"/>
				</g>
        <g>
					<polygon class="st9" points="110.8,104.2 110.8,109.6 110.7,109.5 110.7,104.1 					"/>
				</g>
        <g>
					<polygon class="st8" points="111,104.1 110.8,104.2 110.7,104.1 110.9,103.9 					"/>
				</g>
			</g>
		</g>
      <g>
			<g class="st1">
				<g>
					<polygon class="st13" points="107.9,101.9 107.9,107.3 107.7,107.5 107.7,102.1 					"/>
				</g>
        <g>
					<polygon class="st9" points="107.7,102.1 107.7,107.5 107.5,107.3 107.5,102 					"/>
				</g>
        <g>
					<polygon class="st8" points="107.9,101.9 107.7,102.1 107.5,102 107.7,101.8 					"/>
				</g>
			</g>
		</g>
      <g>
			<g>
				<polygon class="st11" points="111.9,102.9 111.9,104 109.7,105.3 109.7,105.1 				"/>
			</g>
        <g>
				<polygon class="st11" points="109.7,105.1 109.7,105.3 106.1,102.9 106.1,102.7 				"/>
			</g>
        <g>
				<polygon class="st14" points="111.9,102.9 109.7,105.1 106.1,102.7 108.3,100.5 				"/>
			</g>
        <g>
				<defs>
					<polygon id="SVGID_6_" points="111.9,102.9 109.7,105.1 106.1,102.7 108.3,100.5 					"/>
				</defs>
          <clipPath id="SVGID_7_">
					<use xlink:href="#SVGID_6_"  style="overflow:visible;"/>
				</clipPath>
          <g class="st18">
					<g>
						<line class="st16" x1="105.7" y1="102.7" x2="108.2" y2="100.2"/>
            <polyline class="st16" points="108.7,100.6 108.6,100.7 106.3,103.1 						"/>
            <polyline class="st16" points="109.3,100.9 109.1,101.1 106.8,103.5 						"/>
            <polyline class="st16" points="109.9,101.3 109.7,101.5 107.4,103.9 						"/>
            <polyline class="st16" points="110.5,101.7 110.3,101.9 108,104.3 						"/>
            <polyline class="st16" points="111.1,102.1 110.9,102.3 108.6,104.7 						"/>
            <polyline class="st16" points="111.7,102.5 111.5,102.7 109.2,105.1 						"/>
            <polyline class="st16" points="112.2,102.9 112,103.1 109.8,105.5 						"/>
					</g>
				</g>
			</g>
		</g>
	</g>
</g>
  <g>
	<g>
		<polygon class="st19" points="109.5,120 109.4,123.7 107.1,122.2 107.1,118.4 		"/>
	</g>
    <g>
		<g class="st1">
			<g>
				<polygon class="st2" points="109.5,119.8 109.5,123.8 109.4,123.9 109.4,120 				"/>
			</g>
      <g>
				<polygon class="st20" points="109.4,120 109.4,123.9 109.2,123.8 109.2,119.9 				"/>
			</g>
      <g>
				<polygon class="st8" points="109.5,119.8 109.4,120 109.2,119.9 109.4,119.7 				"/>
			</g>
		</g>
	</g>
    <g>
		<g class="st1">
			<g>
				<polygon class="st21" points="107.2,118.3 107.2,122.2 107,122.4 107,118.4 				"/>
			</g>
      <g>
				<polygon class="st20" points="107,118.4 107,122.4 106.9,122.3 106.9,118.3 				"/>
			</g>
      <g>
				<polygon class="st8" points="107.2,118.3 107,118.4 106.9,118.3 107.1,118.2 				"/>
			</g>
		</g>
	</g>
    <g>
		<g>
			<polygon class="st2" points="110.1,119 110.1,119.8 108.5,120.7 108.5,120.6 			"/>
		</g>
      <g>
			<polygon class="st2" points="108.5,120.6 108.5,120.7 105.8,118.9 105.8,118.9 			"/>
		</g>
      <g>
			<polygon class="st14" points="110.1,119 108.5,120.6 105.8,118.9 107.5,117.2 			"/>
		</g>
      <g>
			<defs>
				<polygon id="SVGID_8_" points="110.1,119 108.5,120.6 105.8,118.9 107.5,117.2 				"/>
			</defs>
        <clipPath id="SVGID_9_">
				<use xlink:href="#SVGID_8_"  style="overflow:visible;"/>
			</clipPath>
        <g class="st22">
				<g>
					<line class="st23" x1="105.6" y1="118.8" x2="107.4" y2="117"/>
          <polyline class="st23" points="107.8,117.2 107.7,117.4 106,119.1 					"/>
          <polyline class="st23" points="108.3,117.5 108.1,117.7 106.4,119.4 					"/>
          <polyline class="st23" points="108.7,117.8 108.6,118 106.9,119.7 					"/>
          <polyline class="st23" points="109.1,118.1 109,118.3 107.3,120 					"/>
          <polyline class="st23" points="109.6,118.4 109.4,118.5 107.7,120.3 					"/>
          <polyline class="st23" points="110,118.7 109.9,118.8 108.2,120.6 					"/>
          <polyline class="st23" points="110.4,119 110.3,119.1 108.6,120.9 					"/>
				</g>
			</g>
		</g>
	</g>
</g>
  <g>
	<g>
		<g class="st1">
			<g>
				<polygon class="st6" points="104.5,64.1 104.3,125.9 72.2,144.5 72.4,82.8 				"/>
			</g>
      <g>
				<g>
					<polygon class="st7" points="72.4,82.8 72.2,144.5 39.9,125.9 40.1,64.2 					"/>
				</g>
			</g>
      <g>
				<polygon class="st8" points="104.5,64.1 72.4,82.8 40.1,64.2 72.2,45.5 				"/>
			</g>
		</g>
	</g>
    <g>
		<g>
			<path class="st5" d="M58.7,123.5l0,13.2l-8.8-5.1l0-12.6c0-1.9,2.1-3.1,3.7-2.1l1.9,1.1C57.5,119.2,58.7,121.3,58.7,123.5z"/>
		</g>
	</g>
    <g>
		<polygon class="st24" points="72.4,100.6 72.4,102.4 39.9,83.8 39.9,81.9 		"/>
	</g>
    <g>
		<g class="st1">
			<g>
				<polygon class="st25" points="56,55.1 84.6,38.5 104.4,64.2 72.5,82.9 				"/>
			</g>
      <g>
				<polygon class="st26" points="40.1,64.2 72.2,45.5 84.6,38.5 56,55.1 				"/>
			</g>
      <g>
				<g>
					<polygon class="st24" points="56,55.1 72.5,82.9 40.1,64.2 					"/>
				</g>
			</g>
		</g>
	</g>
    <g>
		<polygon class="st24" points="104.5,98 104.5,99.8 72.4,118.5 72.4,116.6 		"/>
	</g>
    <g>
		<polygon class="st24" points="104.5,81.9 104.5,83.8 72.4,102.4 72.4,100.6 		"/>
	</g>
    <g>
		<polygon class="st24" points="72.4,116.6 72.4,118.5 40,99.8 40,97.9 		"/>
	</g>
    <g>
		<polygon class="st25" points="104.5,98 72.4,116.6 40,97.9 40,97.2 72.4,115.8 104.5,97.2 		"/>
	</g>
    <g>
		<g>
			<polygon class="st27" points="60.9,89.4 60.8,104.6 49.9,98.3 50,83.1 			"/>
		</g>
      <g>
			<g class="st1">
				<g>
					<polygon class="st24" points="60.9,88.5 60.9,104.6 60.2,105.1 60.2,89.1 					"/>
				</g>
        <g>
					<polygon class="st25" points="60.2,89.1 60.2,105.1 59.6,104.8 59.6,88.7 					"/>
				</g>
        <g>
					<polygon class="st8" points="60.9,88.5 60.2,89.1 59.6,88.7 60.4,88.1 					"/>
				</g>
			</g>
		</g>
      <g>
			<g class="st1">
				<g>
					<polygon class="st28" points="50,82.2 50,98.2 49.2,98.8 49.2,82.7 					"/>
				</g>
        <g>
					<g>
						<polygon class="st25" points="49.2,82.7 49.2,98.8 48.6,98.4 48.6,82.3 						"/>
					</g>
				</g>
        <g>
					<polygon class="st8" points="50,82.2 49.2,82.7 48.6,82.3 49.4,81.8 					"/>
				</g>
			</g>
		</g>
      <g>
			<g>
				<polygon class="st24" points="63.8,85 63.8,88.3 56.2,92.2 56.2,91.8 				"/>
			</g>
        <g>
				<polygon class="st24" points="56.2,91.8 56.2,92.2 43.6,84.9 43.6,84.6 				"/>
			</g>
        <g>
				<polygon class="st25" points="63.8,85 56.2,91.8 43.6,84.6 51.3,77.8 				"/>
			</g>
        <g>
				<defs>
					<polygon id="SVGID_10_" points="63.8,85 56.2,91.8 43.6,84.6 51.3,77.8 					"/>
				</defs>
          <clipPath id="SVGID_11_">
					<use xlink:href="#SVGID_10_"  style="overflow:visible;"/>
				</clipPath>
          <g class="st29">
					<g>
						<line class="st30" x1="42.3" y1="84.5" x2="51" y2="76.9"/>
            <polyline class="st30" points="53,78 52.3,78.6 44.3,85.7 						"/>
            <polyline class="st30" points="55,79.2 54.3,79.8 46.4,86.9 						"/>
            <polyline class="st30" points="57,80.4 56.4,81 48.4,88 						"/>
            <polyline class="st30" points="59.1,81.5 58.4,82.1 50.4,89.2 						"/>
            <polyline class="st30" points="61.1,82.7 60.4,83.3 52.4,90.4 						"/>
            <polyline class="st30" points="63.1,83.9 62.4,84.5 54.5,91.6 						"/>
            <polyline class="st30" points="65.1,85 64.4,85.7 56.5,92.7 						"/>
					</g>
				</g>
			</g>
		</g>
	</g>
    <g>
		<g>
			<polygon class="st27" points="46.5,116.3 46.4,122.3 42.1,119.8 42.2,113.8 			"/>
		</g>
      <g>
			<g class="st1">
				<g>
					<polygon class="st24" points="46.5,115.9 46.5,122.3 46.2,122.5 46.2,116.2 					"/>
				</g>
        <g>
					<polygon class="st25" points="46.2,116.2 46.2,122.5 46,122.4 46,116 					"/>
				</g>
        <g>
					<polygon class="st8" points="46.5,115.9 46.2,116.2 46,116 46.3,115.8 					"/>
				</g>
			</g>
		</g>
      <g>
			<g class="st1">
				<g>
					<polygon class="st24" points="42.2,113.4 42.2,119.8 41.9,120 41.9,113.6 					"/>
				</g>
        <g>
					<g>
						<polygon class="st25" points="41.9,113.6 41.9,120 41.6,119.8 41.6,113.5 						"/>
					</g>
				</g>
        <g>
					<polygon class="st8" points="42.2,113.4 41.9,113.6 41.6,113.5 42,113.3 					"/>
				</g>
			</g>
		</g>
      <g>
			<g>
				<polygon class="st24" points="47.6,114.6 47.6,115.8 44.6,117.4 44.6,117.2 				"/>
			</g>
        <g>
				<polygon class="st24" points="44.6,117.2 44.6,117.4 39.7,114.5 39.7,114.4 				"/>
			</g>
        <g>
				<polygon class="st14" points="47.6,114.6 44.6,117.2 39.7,114.4 42.7,111.7 				"/>
			</g>
        <g>
				<defs>
					<polygon id="SVGID_12_" points="47.6,114.6 44.6,117.2 39.7,114.4 42.7,111.7 					"/>
				</defs>
          <use xlink:href="#SVGID_12_"  style="overflow:visible;fill:#E5FF78;"/>
          <clipPath id="SVGID_13_">
					<use xlink:href="#SVGID_12_"  style="overflow:visible;"/>
				</clipPath>
          <g class="st31">
					<g>
						<g>
							<line class="st32" x1="39.1" y1="114.4" x2="42.6" y2="111.3"/>
              <polyline class="st32" points="43.4,111.8 43.1,112 39.9,114.8 							"/>
              <polyline class="st32" points="44.1,112.3 43.9,112.5 40.7,115.3 							"/>
              <polyline class="st32" points="44.9,112.7 44.7,113 41.5,115.8 							"/>
              <polyline class="st32" points="45.7,113.2 45.5,113.4 42.3,116.2 							"/>
              <polyline class="st32" points="46.5,113.6 46.3,113.9 43.1,116.7 							"/>
              <polyline class="st32" points="47.3,114.1 47.1,114.3 43.9,117.1 							"/>
              <polyline class="st32" points="48.1,114.6 47.9,114.8 44.7,117.6 							"/>
						</g>
					</g>
				</g>
			</g>
		</g>
	</g>
    <g>
		<g>
			<polygon class="st27" points="69.1,126.1 69,132.1 64.7,129.6 64.8,123.7 			"/>
		</g>
      <g>
			<g class="st1">
				<g>
					<polygon class="st24" points="69.1,125.8 69.1,132.1 68.8,132.3 68.8,126 					"/>
				</g>
        <g>
					<polygon class="st25" points="68.8,126 68.8,132.3 68.6,132.2 68.6,125.8 					"/>
				</g>
        <g>
					<polygon class="st8" points="69.1,125.8 68.8,126 68.6,125.8 68.9,125.6 					"/>
				</g>
			</g>
		</g>
      <g>
			<g class="st1">
				<g>
					<polygon class="st24" points="64.8,123.3 64.8,129.6 64.5,129.8 64.5,123.5 					"/>
				</g>
        <g>
					<g>
						<polygon class="st25" points="64.5,123.5 64.5,129.8 64.2,129.7 64.2,123.3 						"/>
					</g>
				</g>
        <g>
					<polygon class="st8" points="64.8,123.3 64.5,123.5 64.2,123.3 64.6,123.1 					"/>
				</g>
			</g>
		</g>
      <g>
			<g>
				<polygon class="st24" points="70.2,124.4 70.2,125.7 67.2,127.2 67.2,127.1 				"/>
			</g>
        <g>
				<polygon class="st24" points="67.2,127.1 67.2,127.2 62.3,124.4 62.3,124.2 				"/>
			</g>
        <g>
				<polygon class="st14" points="70.2,124.4 67.2,127.1 62.3,124.2 65.3,121.5 				"/>
			</g>
        <g>
				<defs>
					<polygon id="SVGID_14_" points="70.2,124.4 67.2,127.1 62.3,124.2 65.3,121.5 					"/>
				</defs>
          <use xlink:href="#SVGID_14_"  style="overflow:visible;fill:#E5FF78;"/>
          <clipPath id="SVGID_15_">
					<use xlink:href="#SVGID_14_"  style="overflow:visible;"/>
				</clipPath>
          <g class="st33">
					<g>
						<g>
							<line class="st32" x1="61.8" y1="124.2" x2="65.2" y2="121.2"/>
              <polyline class="st32" points="66,121.6 65.7,121.9 62.6,124.7 							"/>
              <polyline class="st32" points="66.8,122.1 66.5,122.3 63.3,125.1 							"/>
              <polyline class="st32" points="67.6,122.6 67.3,122.8 64.1,125.6 							"/>
              <polyline class="st32" points="68.4,123 68.1,123.3 64.9,126.1 							"/>
              <polyline class="st32" points="69.2,123.5 68.9,123.7 65.7,126.5 							"/>
              <polyline class="st32" points="70,123.9 69.7,124.2 66.5,127 							"/>
              <polyline class="st32" points="70.8,124.4 70.5,124.7 67.3,127.4 							"/>
						</g>
					</g>
				</g>
			</g>
		</g>
	</g>
    <g>
		<g class="st1">
			<g>
				<polygon class="st25" points="100.1,74.3 100,94.9 79.2,107.4 79.3,86.8 				"/>
			</g>
      <g>
				<polygon class="st34" points="79.3,86.8 79.2,107.4 76.6,105.5 76.7,84.9 				"/>
			</g>
      <g>
				<polygon class="st24" points="100.1,74.3 79.3,86.8 76.7,84.9 97.5,72.3 				"/>
			</g>
		</g>
	</g>
    <g>
		<g>
			<g>
				<path class="st35" d="M83.7,92.6L83.7,92.6l0,0.1l-2.6,1.5c0,0.7,0,1.3-0.1,1.7c0,0.7-0.2,1.1-0.6,1.9l0,0
					c0.3-0.5,0.4-0.9,0.5-1.3c0.1-0.3,0.1-1.2,0.1-2.5l0.3,0.1l2.2-1.3l0.2-0.4L83.7,92.6z"/>
			</g>
      <g>
				<path class="st35" d="M82.3,93.3c0-0.1-0.2-0.2-0.3-0.3l0-0.1c0.3,0,0.5,0,0.5,0.1l0,0.1c0,0.1-0.1,0.3-0.1,0.3
					C82.3,93.4,82.3,93.3,82.3,93.3z"/>
			</g>
      <g>
				<path class="st35" d="M86.7,92.5l0.2,0l0,0l0,0.1l-0.1,0.1l0,0.6c0,0.3,0,0.5,0,0.6l0,0c0,0.1,0,0.1-0.1,0.2l-0.1,0.1l0,0l0-0.3
					l-1.5,0.9l0,0.2c0,0.1-0.1,0.2-0.2,0.2l0-0.1l0-0.1c0-0.3,0-0.5,0-0.7l0-0.5c0-0.1,0-0.3,0-0.4l0.2,0.1l1.4-0.8L86.7,92.5z
					 M86.6,93.8l0-1l-1.5,0.9l0,1L86.6,93.8"/>
			</g>
      <g>
				<path class="st35" d="M87.5,91.5L87.5,91.5L87.5,91.5l-3.1,1.9c-0.1,0-0.2,0.1-0.3,0.2l-0.1-0.1c0.1,0,0.2-0.1,0.3-0.1l1.5-0.8
					l0-0.9L85,92.1c-0.1,0.3-0.3,0.7-0.4,1l-0.1,0c0.2-0.6,0.4-1.2,0.6-1.7l0.3,0l0,0l0,0c-0.1,0.1-0.1,0.1-0.2,0.2
					c0,0.1-0.1,0.3-0.2,0.4l0.8-0.5l0-0.3c0-0.2,0-0.5,0-0.6l0.3,0l0,0l0,0.1L86,90.8l0,0.6l0.8-0.5l0.2-0.3l0.2,0.1l0,0l0,0
					L86,91.5l0,0.9l1.1-0.7l0.2-0.4L87.5,91.5z"/>
			</g>
      <g>
				<path class="st35" d="M88.6,90.5l0,1.8c0,0.2,0,0.4,0,0.6l0,0c0,0.1,0,0.1-0.1,0.2l-0.1,0.1l0-0.1l0-0.1c0-0.2,0-0.4,0-0.7
					l0-1.8c-0.2,0.4-0.3,0.8-0.5,1.1l-0.1,0c0.4-0.9,0.7-1.7,0.9-2.7l0.2,0l0,0l0,0.1c-0.1,0.1-0.1,0.2-0.1,0.2
					c-0.1,0.3-0.2,0.6-0.3,0.9l0.1,0l0,0l0,0.1L88.6,90.5z"/>
			</g>
      <g>
				<path class="st35" d="M90.1,89.1c0,0-0.1,0-0.1-0.1c0-0.1-0.2-0.3-0.4-0.4l0-0.1c0.4,0,0.5,0.1,0.5,0.2l0,0.1
					C90.2,88.9,90.1,89,90.1,89.1z"/>
			</g>
      <g>
				<path class="st35" d="M89,90l-0.1-0.1c0.1,0,0.2-0.1,0.3-0.1l1.6-0.9l0.2-0.4l0.3,0.1l0,0l-0.1,0.1l-1.9,1.1
					C89.1,89.9,89,90,89,90z"/>
			</g>
      <g>
				<path class="st35" d="M89.2,90.2L89.2,90.2c0.3,0.2,0.6,0.7,0.6,0.9c0,0.2-0.1,0.4-0.2,0.4c-0.1,0-0.1,0-0.1-0.2
					C89.5,91.1,89.4,90.6,89.2,90.2z"/>
			</g>
      <g>
				<path class="st35" d="M91.3,91L91.3,91L91.3,91L89,92.4c-0.1,0-0.2,0.1-0.2,0.2l-0.1-0.1c0.1,0,0.2-0.1,0.3-0.1l1.1-0.7
					c0.3-1.3,0.4-1.6,0.5-2.4l0.3,0l0,0l0,0c-0.1,0.1-0.1,0.1-0.2,0.4c-0.2,0.6-0.3,1.3-0.5,1.8l0.7-0.4l0.2-0.4L91.3,91z"/>
			</g>
      <g>
				<path class="st35" d="M94.9,85.9L94.9,85.9L94.9,85.9l-0.1,0.2c0,0.2,0,0.6-0.1,0.8c0,0.5,0,0.5-0.3,0.8l0,0l0,0
					c0-0.1-0.1-0.2-0.4-0.1l0-0.1c0.2-0.1,0.3-0.1,0.4-0.2c0.2-0.1,0.2-0.2,0.2-0.5c0-0.2,0-0.6,0.1-0.8l-0.8,0.5
					c-0.1,1.1-0.3,1.5-1,2.4l0,0c0.6-0.9,0.8-1.5,0.8-2.3l-0.3,0.2c-0.1,0-0.2,0.1-0.2,0.2L92.9,87c0.1,0,0.2-0.1,0.3-0.1l1.3-0.8
					l0.1-0.2L94.9,85.9z"/>
			</g>
      <g>
				<path class="st35" d="M94.6,87.7l0.2,0.1l0,0l0,0.1l-0.1,0.1l0,0.9c0,0.1,0,0.3,0,0.5l0,0c0,0.1,0,0.1-0.1,0.2l-0.1,0.1l0,0
					l0-0.3l-1.1,0.7l0,0.3l-0.1,0.2l-0.1,0.1l0-0.1c0-0.1,0-0.6,0-0.6l0-0.8c0-0.1,0-0.3,0-0.4l0.2,0.1l1-0.6L94.6,87.7z M94.6,89.1
					l0-1.1l-1.1,0.7l0,1.1L94.6,89.1"/>
			</g>
      <g>
				<path class="st35" d="M93,88.1L93,88.1l-0.5,0.7l0,1.5c0,0.3,0,0.3-0.3,0.6l0,0l0,0c0-0.1-0.1-0.1-0.4-0.1l0-0.1
					c0.2-0.1,0.3-0.1,0.4-0.1c0.1-0.1,0.1-0.1,0.1-0.2l0-1.4c-0.4,0.6-0.5,0.6-0.5,0.7l0,0.1l0,0l-0.2-0.1l0.7-0.8l0-0.9L92,88.2
					c-0.1,0-0.2,0.1-0.2,0.2l-0.1-0.1c0.1,0,0.2-0.1,0.3-0.1l0.4-0.3l0-0.4c0-0.2,0-0.5,0-0.6l0.3,0l0,0c0,0,0,0-0.1,0.2l0,0.7
					l0.2-0.1l0.1-0.3l0.2,0.1l0,0l0,0l-0.6,0.3l0,0.8L93,88.1z"/>
			</g>
      <g>
				<path class="st35" d="M98.8,86.8L98.8,86.8l0,0.1l-2,1.2c-0.1,0-0.2,0.1-0.2,0.2l-0.1-0.1c0.1,0,0.2-0.1,0.3-0.1l0.4-0.2l0-2.8
					c0-0.2,0-0.5,0-0.6l0.2,0.1l0.9-0.5l0.1-0.3l0.2,0.1l0,0l0,0.1L98.4,84l0,3l0.1-0.1l0.1-0.3L98.8,86.8z M98.2,87.1l0-1.1l-1,0.6
					l0,1.1L98.2,87.1 M98.2,85.9l0-0.9l-1,0.6l0,0.9L98.2,85.9 M98.2,84.9l0-0.9l-1,0.6l0,0.9L98.2,84.9"/>
			</g>
      <g>
				<path class="st35" d="M96.5,86.9c0-0.1-0.1-0.2-0.3-0.3l0,1.1c0,0.3,0,0.7,0,0.8l0,0c0,0.1,0,0.1-0.1,0.2L96,88.8l0-0.1l0-0.1
					c0-0.3,0-0.7,0-0.9l0-1.2c-0.2,0.6-0.4,1.3-0.7,1.8l0,0c0.3-0.7,0.5-1.5,0.7-2.2l-0.3,0.2c-0.1,0-0.2,0.1-0.3,0.2l-0.1-0.1
					c0.1,0,0.2-0.1,0.3-0.1l0.4-0.3l0-0.8l-0.7,0.5l0-0.1c0.5-0.4,0.9-0.8,1.2-1.2l0.2,0.1l0,0l0,0l-0.1,0.1l-0.1,0.1
					c-0.1,0.1-0.2,0.2-0.3,0.3l0,0.9l0.3-0.2l0.1-0.3l0.2,0.1l0,0l-0.1,0.1l-0.6,0.4l0,0.4c0.3,0,0.5,0,0.5,0.1l0,0.1
					C96.7,86.8,96.7,86.9,96.5,86.9C96.6,87,96.5,86.9,96.5,86.9z"/>
			</g>
		</g>
	</g>
</g>
  <g>
	<g>
		<g>
			<g class="st1">
				<g>
					<polygon class="st6" points="117.2,124.5 117.1,151.2 103.2,159.3 103.3,132.6 					"/>
				</g>
        <g>
					<g>
						<polygon class="st7" points="103.3,132.6 103.2,159.3 89.2,151.2 89.3,124.5 						"/>
					</g>
				</g>
        <g>
					<polygon class="st8" points="117.2,124.5 103.3,132.6 89.3,124.5 103.2,116.4 					"/>
				</g>
			</g>
		</g>
    <g>
			<g class="st1">
				<g>
					<polygon class="st36" points="96.2,120.5 108.6,113.3 117.2,124.5 103.3,132.6 					"/>
				</g>
        <g>
					<polygon class="st10" points="89.3,124.5 103.2,116.4 108.6,113.3 96.2,120.5 					"/>
				</g>
        <g>
					<g>
						<polygon class="st2" points="96.2,120.5 103.3,132.6 89.3,124.5 						"/>
					</g>
				</g>
			</g>
		</g>
	</g>
    <g>
		<polygon class="st2" points="117.2,139.1 117.2,140 103.3,148 103.3,147.2 		"/>
	</g>
    <g>
		<g>
			<polygon class="st2" points="103.3,147.2 103.3,148 89.3,139.9 89.3,139.1 			"/>
		</g>
	</g>
    <g>
		<polygon class="st36" points="117.2,139.1 103.3,147.2 89.3,139.1 89.3,138.8 103.3,146.9 117.2,138.8 		"/>
	</g>
    <g>
		<g>
			<polygon class="st19" points="94.4,134.2 94.4,138.3 91.5,136.6 91.5,132.5 			"/>
		</g>
      <g>
			<g class="st1">
				<g>
					<polygon class="st2" points="94.5,134 94.5,138.3 94.3,138.5 94.3,134.2 					"/>
				</g>
        <g>
					<polygon class="st20" points="94.3,134.2 94.3,138.5 94.1,138.4 94.1,134.1 					"/>
				</g>
        <g>
					<polygon class="st8" points="94.5,134 94.3,134.2 94.1,134.1 94.4,133.9 					"/>
				</g>
			</g>
		</g>
      <g>
			<g class="st1">
				<g>
					<polygon class="st21" points="91.6,132.3 91.6,136.6 91.4,136.8 91.4,132.5 					"/>
				</g>
        <g>
					<polygon class="st20" points="91.4,132.5 91.4,136.8 91.2,136.7 91.2,132.4 					"/>
				</g>
        <g>
					<polygon class="st8" points="91.6,132.3 91.4,132.5 91.2,132.4 91.4,132.2 					"/>
				</g>
			</g>
		</g>
      <g>
			<g>
				<polygon class="st2" points="95.3,133.1 95.3,134 93.2,135 93.2,134.9 				"/>
			</g>
        <g>
				<polygon class="st2" points="93.2,134.9 93.2,135 89.9,133.1 89.9,133 				"/>
			</g>
        <g>
				<polygon class="st14" points="95.3,133.1 93.2,134.9 89.9,133 91.9,131.2 				"/>
			</g>
        <g>
				<defs>
					<polygon id="SVGID_16_" points="95.3,133.1 93.2,134.9 89.9,133 91.9,131.2 					"/>
				</defs>
          <clipPath id="SVGID_17_">
					<use xlink:href="#SVGID_16_"  style="overflow:visible;"/>
				</clipPath>
          <g class="st37">
					<g>
						<line class="st23" x1="89.5" y1="133" x2="91.8" y2="130.9"/>
            <polyline class="st23" points="92.4,131.2 92.2,131.4 90.1,133.3 						"/>
            <polyline class="st23" points="92.9,131.6 92.8,131.7 90.6,133.6 						"/>
            <polyline class="st23" points="93.5,131.9 93.3,132 91.2,133.9 						"/>
            <polyline class="st23" points="94,132.2 93.8,132.3 91.7,134.2 						"/>
            <polyline class="st23" points="94.5,132.5 94.4,132.7 92.2,134.5 						"/>
            <polyline class="st23" points="95.1,132.8 94.9,133 92.8,134.9 						"/>
            <polyline class="st23" points="95.6,133.1 95.4,133.3 93.3,135.2 						"/>
					</g>
				</g>
			</g>
		</g>
	</g>
    <g>
		<g>
			<polygon class="st19" points="101.3,137.7 101.3,141.7 98.4,140 98.4,136 			"/>
		</g>
      <g>
			<g class="st1">
				<g>
					<polygon class="st2" points="101.4,137.5 101.4,141.8 101.2,141.9 101.2,137.6 					"/>
				</g>
        <g>
					<polygon class="st20" points="101.2,137.6 101.2,141.9 101.1,141.8 101.1,137.5 					"/>
				</g>
        <g>
					<polygon class="st8" points="101.4,137.5 101.2,137.6 101.1,137.5 101.3,137.4 					"/>
				</g>
			</g>
		</g>
      <g>
			<g class="st1">
				<g>
					<polygon class="st21" points="98.5,135.8 98.5,140.1 98.3,140.2 98.3,135.9 					"/>
				</g>
        <g>
					<polygon class="st20" points="98.3,135.9 98.3,140.2 98.2,140.1 98.2,135.8 					"/>
				</g>
        <g>
					<polygon class="st8" points="98.5,135.8 98.3,135.9 98.2,135.8 98.4,135.7 					"/>
				</g>
			</g>
		</g>
      <g>
			<g>
				<polygon class="st2" points="102.2,136.5 102.2,137.4 100.2,138.5 100.2,138.4 				"/>
			</g>
        <g>
				<polygon class="st2" points="100.2,138.4 100.2,138.5 96.8,136.5 96.8,136.4 				"/>
			</g>
        <g>
				<polygon class="st14" points="102.2,136.5 100.2,138.4 96.8,136.4 98.9,134.6 				"/>
			</g>
        <g>
				<defs>
					<polygon id="SVGID_18_" points="102.2,136.5 100.2,138.4 96.8,136.4 98.9,134.6 					"/>
				</defs>
          <clipPath id="SVGID_19_">
					<use xlink:href="#SVGID_18_"  style="overflow:visible;"/>
				</clipPath>
          <g class="st38">
					<g>
						<line class="st23" x1="96.5" y1="136.4" x2="98.8" y2="134.4"/>
            <polyline class="st23" points="99.3,134.7 99.2,134.8 97,136.7 						"/>
            <polyline class="st23" points="99.9,135 99.7,135.1 97.6,137 						"/>
            <polyline class="st23" points="100.4,135.3 100.2,135.5 98.1,137.4 						"/>
            <polyline class="st23" points="100.9,135.6 100.8,135.8 98.6,137.7 						"/>
            <polyline class="st23" points="101.5,135.9 101.3,136.1 99.2,138 						"/>
            <polyline class="st23" points="102,136.2 101.8,136.4 99.7,138.3 						"/>
            <polyline class="st23" points="102.6,136.6 102.4,136.7 100.3,138.6 						"/>
					</g>
				</g>
			</g>
		</g>
	</g>
    <g>
		<g>
			<polygon class="st19" points="92.6,146.2 92.6,149.2 90.5,148 90.5,145 			"/>
		</g>
      <g>
			<g class="st1">
				<g>
					<polygon class="st2" points="92.7,146.1 92.7,149.3 92.6,149.4 92.6,146.2 					"/>
				</g>
        <g>
					<polygon class="st20" points="92.6,146.2 92.6,149.4 92.4,149.3 92.4,146.1 					"/>
				</g>
        <g>
					<polygon class="st8" points="92.7,146.1 92.6,146.2 92.4,146.1 92.6,146 					"/>
				</g>
			</g>
		</g>
      <g>
			<g class="st1">
				<g>
					<polygon class="st21" points="90.6,144.9 90.6,148 90.4,148.1 90.4,145 					"/>
				</g>
        <g>
					<polygon class="st20" points="90.4,145 90.4,148.1 90.3,148.1 90.3,144.9 					"/>
				</g>
        <g>
					<polygon class="st8" points="90.6,144.9 90.4,145 90.3,144.9 90.4,144.8 					"/>
				</g>
			</g>
		</g>
      <g>
			<g>
				<polygon class="st2" points="93.3,145.4 93.3,146.1 91.8,146.8 91.8,146.8 				"/>
			</g>
        <g>
				<polygon class="st2" points="91.8,146.8 91.8,146.8 89.3,145.4 89.3,145.3 				"/>
			</g>
        <g>
				<polygon class="st14" points="93.3,145.4 91.8,146.8 89.3,145.3 90.8,144 				"/>
			</g>
        <g>
				<defs>
					<polygon id="SVGID_20_" points="93.3,145.4 91.8,146.8 89.3,145.3 90.8,144 					"/>
				</defs>
          <clipPath id="SVGID_21_">
					<use xlink:href="#SVGID_20_"  style="overflow:visible;"/>
				</clipPath>
          <g class="st39">
					<g>
						<line class="st23" x1="89" y1="145.3" x2="90.7" y2="143.8"/>
            <polyline class="st23" points="91.1,144 91,144.2 89.4,145.6 						"/>
            <polyline class="st23" points="91.5,144.3 91.4,144.4 89.8,145.8 						"/>
            <polyline class="st23" points="91.9,144.5 91.8,144.6 90.2,146 						"/>
            <polyline class="st23" points="92.3,144.7 92.2,144.9 90.6,146.3 						"/>
            <polyline class="st23" points="92.7,145 92.6,145.1 91,146.5 						"/>
            <polyline class="st23" points="93.1,145.2 93,145.3 91.4,146.7 						"/>
            <polyline class="st23" points="93.5,145.4 93.4,145.6 91.8,146.9 						"/>
					</g>
				</g>
			</g>
		</g>
	</g>
    <g>
		<g>
			<polygon class="st19" points="101.8,150.4 101.8,153.4 99.6,152.1 99.6,149.1 			"/>
		</g>
      <g>
			<g class="st1">
				<g>
					<polygon class="st2" points="101.8,150.2 101.8,153.4 101.7,153.5 101.7,150.3 					"/>
				</g>
        <g>
					<polygon class="st20" points="101.7,150.3 101.7,153.5 101.6,153.4 101.6,150.3 					"/>
				</g>
        <g>
					<polygon class="st8" points="101.8,150.2 101.7,150.3 101.6,150.3 101.7,150.1 					"/>
				</g>
			</g>
		</g>
      <g>
			<g class="st1">
				<g>
					<polygon class="st21" points="99.7,149 99.7,152.1 99.5,152.3 99.5,149.1 					"/>
				</g>
        <g>
					<polygon class="st20" points="99.5,149.1 99.5,152.3 99.4,152.2 99.4,149 					"/>
				</g>
        <g>
					<polygon class="st8" points="99.7,149 99.5,149.1 99.4,149 99.6,148.9 					"/>
				</g>
			</g>
		</g>
      <g>
			<g>
				<polygon class="st2" points="102.4,149.5 102.4,150.2 100.9,150.9 100.9,150.9 				"/>
			</g>
        <g>
				<polygon class="st2" points="100.9,150.9 100.9,150.9 98.4,149.5 98.4,149.4 				"/>
			</g>
        <g>
				<polygon class="st14" points="102.4,149.5 100.9,150.9 98.4,149.4 99.9,148.1 				"/>
			</g>
        <g>
				<defs>
					<polygon id="SVGID_22_" points="102.4,149.5 100.9,150.9 98.4,149.4 99.9,148.1 					"/>
				</defs>
          <clipPath id="SVGID_23_">
					<use xlink:href="#SVGID_22_"  style="overflow:visible;"/>
				</clipPath>
          <g class="st40">
					<g>
						<line class="st23" x1="98.2" y1="149.4" x2="99.9" y2="147.9"/>
            <polyline class="st23" points="100.3,148.1 100.1,148.3 98.6,149.7 						"/>
            <polyline class="st23" points="100.7,148.4 100.5,148.5 99,149.9 						"/>
            <polyline class="st23" points="101.1,148.6 100.9,148.7 99.4,150.1 						"/>
            <polyline class="st23" points="101.5,148.8 101.3,149 99.8,150.4 						"/>
            <polyline class="st23" points="101.9,149.1 101.7,149.2 100.2,150.6 						"/>
            <polyline class="st23" points="102.3,149.3 102.1,149.4 100.6,150.8 						"/>
            <polyline class="st23" points="102.7,149.5 102.5,149.7 101,151.1 						"/>
					</g>
				</g>
			</g>
		</g>
	</g>
    <g>
		<g>
			<path class="st5" d="M97.8,150.4l0,5.7l-3.8-2.2l0-5.5c0-0.8,0.9-1.3,1.6-0.9l0.8,0.5C97.3,148.5,97.8,149.4,97.8,150.4z"/>
		</g>
	</g>
</g>
  <g>
	<rect x="131.9" y="152.8" class="st41" width="1.2" height="5.3"/>
    <g>
		<circle class="st42" cx="132.5" cy="147.6" r="1.3"/>
      <circle class="st42" cx="132.5" cy="149.5" r="1.6"/>
      <circle class="st42" cx="132.5" cy="152.4" r="2.6"/>
	</g>
</g>
  <g>
	<rect x="155.9" y="140.2" class="st41" width="0.9" height="4"/>
    <g>
		<circle class="st42" cx="156.4" cy="136.3" r="1"/>
      <circle class="st42" cx="156.4" cy="137.7" r="1.2"/>
      <circle class="st42" cx="156.4" cy="139.9" r="1.9"/>
	</g>
</g>
  <g>
	<rect x="173.5" y="131" class="st41" width="0.9" height="4"/>
    <g>
		<circle class="st42" cx="174" cy="127" r="1"/>
      <circle class="st42" cx="174" cy="128.5" r="1.2"/>
      <circle class="st42" cx="174" cy="130.7" r="1.9"/>
	</g>
</g>
  <g>
	<rect x="141" y="112.9" class="st41" width="0.7" height="3"/>
    <g>
		<circle class="st42" cx="141.3" cy="109.9" r="0.7"/>
      <circle class="st42" cx="141.3" cy="111" r="0.9"/>
      <circle class="st42" cx="141.3" cy="112.6" r="1.4"/>
	</g>
</g>
  <g>
	<rect x="155.5" y="120.2" class="st41" width="0.7" height="3"/>
    <g>
		<circle class="st42" cx="155.9" cy="117.2" r="0.7"/>
      <circle class="st42" cx="155.9" cy="118.3" r="0.9"/>
      <circle class="st42" cx="155.9" cy="120" r="1.4"/>
	</g>
</g>
  <g>
	<rect x="104" y="168.2" class="st41" width="1.5" height="6.4"/>
    <g>
		<circle class="st42" cx="104.8" cy="161.9" r="1.6"/>
      <circle class="st42" cx="104.8" cy="164.2" r="2"/>
      <circle class="st42" cx="104.8" cy="167.7" r="3.1"/>
	</g>
</g>
  <g>
	<rect x="30.4" y="128.2" class="st41" width="1" height="4.2"/>
    <g>
		<circle class="st42" cx="30.9" cy="124.1" r="1"/>
      <circle class="st42" cx="30.9" cy="125.6" r="1.3"/>
      <circle class="st42" cx="30.9" cy="127.9" r="2"/>
	</g>
</g>
  <g>
	<rect x="50" y="139.3" class="st41" width="1" height="4.2"/>
    <g>
		<circle class="st42" cx="50.5" cy="135.2" r="1"/>
      <circle class="st42" cx="50.5" cy="136.7" r="1.3"/>
      <circle class="st42" cx="50.5" cy="139" r="2"/>
	</g>
</g>
  <g>
	<rect x="73" y="153" class="st41" width="1" height="4.2"/>
    <g>
		<circle class="st42" cx="73.5" cy="148.8" r="1"/>
      <circle class="st42" cx="73.5" cy="150.3" r="1.3"/>
      <circle class="st42" cx="73.5" cy="152.6" r="2"/>
	</g>
</g>
</svg>
