<svg t="1602559046292" class="icon" viewBox="0 0 1024 1024" version="1.1" xmlns="http://www.w3.org/2000/svg" p-id="6667" width="48" height="48"><path d="M435.2 153.6c41.6768 0 76.8 36.5056 76.8 79.6672v16.128A57.856 57.856 0 0 0 569.8048 307.2h97.28a49.5616 49.5616 0 0 1 49.7152 49.5104v97.28A57.856 57.856 0 0 0 774.6048 512h16.128a81.408 81.408 0 0 1 57.7024 24.4224 74.6496 74.6496 0 0 1 21.9648 53.8624A77.2096 77.2096 0 0 1 793.6 665.6h-18.9952A57.856 57.856 0 0 0 716.8 723.4048v97.28a49.5616 49.5616 0 0 1-49.5104 49.5104H560.64A128.256 128.256 0 0 0 435.2 768a129.7408 129.7408 0 0 0-14.08 0.768A128 128 0 0 0 310.1184 870.4h-107.008a49.5616 49.5616 0 0 1-49.5104-49.5104V716.8h25.6a128.6656 128.6656 0 0 0 92.6208-39.6288A127.0784 127.0784 0 0 0 307.2 582.656 128.9216 128.9216 0 0 0 177.0496 460.8H153.6V356.7104A49.5616 49.5616 0 0 1 203.1104 307.2h97.28A57.856 57.856 0 0 0 358.4 249.3952V230.4a77.2096 77.2096 0 0 1 75.3152-76.8H435.2m0-51.2h-2.3552A128 128 0 0 0 307.2 230.4v18.9952A6.6048 6.6048 0 0 1 300.5952 256h-97.28A100.7104 100.7104 0 0 0 102.4 356.7104v131.84a23.4496 23.4496 0 0 0 23.4496 23.4496h51.2A78.2336 78.2336 0 0 1 256 585.1136 76.8 76.8 0 0 1 179.2 665.6H125.8496a23.4496 23.4496 0 0 0-23.4496 23.4496v131.84A100.7104 100.7104 0 0 0 203.1104 921.6h131.84a23.4496 23.4496 0 0 0 23.4496-23.4496 78.2336 78.2336 0 0 1 68.1984-78.4896A81.92 81.92 0 0 1 435.2 819.2a76.8 76.8 0 0 1 76.8 76.8v2.1504a23.4496 23.4496 0 0 0 23.4496 23.4496h131.84A100.7104 100.7104 0 0 0 768 820.8896v-97.28a6.6048 6.6048 0 0 1 6.6048-6.6048H793.6a128 128 0 0 0 128-125.5424c1.3312-71.68-59.136-130.4576-130.8672-130.4576h-16.128a6.6048 6.6048 0 0 1-6.6048-6.8096v-97.28A100.7104 100.7104 0 0 0 667.2896 256h-97.28a6.6048 6.6048 0 0 1-6.8096-6.6048v-16.128C563.2 162.304 505.7536 102.4 435.2 102.4z" p-id="6668" fill="#e9e9e9"></path></svg>
