<svg t="1601959020893" class="icon" viewBox="0 0 1024 1024" version="1.1" xmlns="http://www.w3.org/2000/svg" p-id="6746" width="200" height="200"><path d="M819.655111 216.177778 204.344889 216.177778C179.461689 216.177778 159.288889 196.004978 159.288889 171.121778l0-0.910222c0-24.8832 20.1728-45.056 45.056-45.056l615.310222 0c24.8832 0 45.056 20.1728 45.056 45.056l0 0.910222C864.711111 196.004978 844.538311 216.177778 819.655111 216.177778zM830.577778 238.933333l0 375.466667c0 31.414044-25.474844 56.888889-56.888889 56.888889L523.377778 671.288889l0 105.346844 153.782044 61.508267c11.662222 4.676267 17.339733 17.908622 12.674844 29.5936-4.664889 11.650844-17.863111 17.316978-29.5936 12.674844L523.377778 825.6512 523.377778 876.088889c0 12.561067-10.194489 22.755556-22.755556 22.755556s-22.755556-10.194489-22.755556-22.755556l0-50.210133-136.749511 55.648711c-2.810311 1.149156-5.711644 1.683911-8.567467 1.683911-8.988444 0-17.487644-5.358933-21.0944-14.188089-4.733156-11.639467 0.853333-24.917333 12.504178-29.650489L477.866667 776.738133 477.866667 671.288889 250.311111 671.288889c-31.414044 0-56.888889-25.474844-56.888889-56.888889L193.422222 238.933333 830.577778 238.933333zM398.222222 477.866667l-68.266667 0 0 113.777778 68.266667 0L398.222222 477.866667zM546.133333 318.577778l-68.266667 0 0 273.066667 68.266667 0L546.133333 318.577778zM694.044444 386.844444l-68.266667 0 0 204.8 68.266667 0L694.044444 386.844444z" p-id="6747"></path></svg>
