<svg t="1602491353766" class="icon" viewBox="0 0 1024 1024" version="1.1" xmlns="http://www.w3.org/2000/svg" p-id="14727" width="48" height="48"><path d="M364.8 896H192c-32 0-64-32-64-64v-160c0-12.8-12.8-25.6-25.6-25.6s-25.6 12.8-25.6 25.6V832c0 64 51.2 115.2 115.2 115.2h172.8c12.8 0 25.6-12.8 25.6-25.6 0-19.2-12.8-25.6-25.6-25.6zM102.4 377.6c19.2 0 25.6-12.8 25.6-32V192c0-32 32-64 64-64h160c12.8 0 25.6-12.8 25.6-25.6s-12.8-25.6-32-25.6H192C128 76.8 76.8 128 76.8 192v160c0 12.8 12.8 25.6 25.6 25.6zM921.6 633.6c-12.8 0-25.6 12.8-25.6 25.6V832c0 32-25.6 57.6-57.6 57.6h-108.8c-12.8 0-25.6 12.8-25.6 25.6s12.8 25.6 25.6 25.6H832c64 0 115.2-51.2 115.2-115.2v-172.8c0-6.4-12.8-19.2-25.6-19.2zM819.2 531.2c12.8-19.2 12.8-44.8 0-64-89.6-115.2-192-172.8-307.2-172.8-108.8 0-211.2 57.6-307.2 172.8-12.8 19.2-12.8 44.8 0 64C300.8 646.4 403.2 704 512 704c108.8 0 211.2-57.6 307.2-172.8zM512 646.4c-96 0-179.2-51.2-262.4-147.2C332.8 396.8 416 345.6 512 345.6c96 0 179.2 51.2 262.4 147.2-83.2 108.8-166.4 153.6-262.4 153.6zM832 76.8h-160c-12.8 0-25.6 12.8-25.6 25.6s12.8 25.6 32 25.6H832c32 0 64 32 64 64v160c0 12.8 12.8 25.6 25.6 25.6s25.6-12.8 25.6-25.6V192c0-64-51.2-115.2-115.2-115.2z" fill="#01CBF0" p-id="14728"></path><path d="M512 384c-64 0-115.2 51.2-115.2 115.2S448 614.4 512 614.4s115.2-51.2 115.2-115.2S576 384 512 384z m0 179.2c-38.4 0-64-32-64-64s32-64 64-64c38.4 0 64 32 64 64s-25.6 64-64 64z" fill="#01CBF0" p-id="14729"></path></svg>
